<?xml version="1.0" encoding="UTF-8"?>
<svg version="1.1" xmlns="http://www.w3.org/2000/svg" width="500" height="500">
<path d="M0 0 C0.87978516 0.00045319 1.75957031 0.00090637 2.66601562 0.00137329 C3.58827942 -0.00198532 4.51054321 -0.00534393 5.46075439 -0.00880432 C8.53602421 -0.01836395 11.61123965 -0.02026139 14.68652344 -0.02133179 C16.83197044 -0.02454616 18.97741723 -0.02791037 21.12286377 -0.03141785 C25.6424612 -0.03742522 30.16203948 -0.03925663 34.68164062 -0.03866577 C40.41576651 -0.03856525 46.14976546 -0.05209458 51.88386154 -0.06943798 C56.33002255 -0.08068783 60.77615442 -0.08258088 65.22232819 -0.08205605 C67.33178384 -0.08322145 69.44124062 -0.08756029 71.55068207 -0.09538841 C108.62974093 -0.21986079 146.69363631 3.25781107 174.84667969 30.00601196 C189.21938301 45.18981593 193.9827578 65.54905235 193.90820312 85.91470337 C193.90686371 86.61078201 193.90552429 87.30686066 193.90414429 88.02403259 C193.90066531 89.73157068 193.89534138 91.43910483 193.88964844 93.14663696 C195.0503183 93.12966766 196.21098816 93.11269836 197.40682983 93.09521484 C208.32546103 92.93689614 219.24419047 92.78915279 230.16310692 92.65186119 C235.77712219 92.58092942 241.39103519 92.50622433 247.00488281 92.42300415 C252.41882249 92.34288446 257.83280774 92.2725349 263.24696732 92.20906448 C265.31634859 92.18306734 267.38568812 92.1535023 269.4549675 92.12037277 C272.34511316 92.07470037 275.23514489 92.04152171 278.12548828 92.01138306 C278.98791641 91.99484177 279.85034454 91.97830048 280.73890686 91.96125793 C282.79003167 91.94646133 284.84142236 92.03662849 286.88964844 92.14663696 C287.54964844 92.80663696 288.20964844 93.46663696 288.88964844 94.14663696 C288.18839844 94.96905884 287.48714844 95.79148071 286.76464844 96.63882446 C276.94116387 107.38329772 276.94116387 107.38329772 268.76066589 119.25082397 C266.41983536 121.6226762 264.7551892 121.61758041 261.50294495 121.64431763 C260.77502243 121.62993652 260.04709991 121.61555542 259.29711914 121.60073853 C258.52614899 121.60132263 257.75517883 121.60190674 256.96084595 121.60250854 C254.41191619 121.59972125 251.86415518 121.56860028 249.31542969 121.53726196 C247.54852436 121.52980183 245.78161077 121.52410782 244.01469421 121.52011108 C239.36364915 121.50483673 234.71310355 121.4655396 230.06225586 121.42129517 C225.31663775 121.38038117 220.57093895 121.36210836 215.82519531 121.34194946 C206.51312688 121.29904693 197.20142919 121.23077396 187.88964844 121.14663696 C187.27768867 122.38605545 187.27768867 122.38605545 186.65336609 123.6505127 C186.11605362 124.73317413 185.57874115 125.81583557 185.02514648 126.93130493 C184.49342331 128.00508392 183.96170013 129.07886292 183.41386414 130.18518066 C172.86247156 150.68588017 152.38352456 163.71771962 131.03417969 170.81460571 C104.89955547 179.00936076 78.98678491 178.49536084 51.88964844 178.14663696 C51.88964844 168.57663696 51.88964844 159.00663696 51.88964844 149.14663696 C54.76167969 149.04866821 57.63371094 148.95069946 60.59277344 148.84976196 C63.44955068 148.74099486 66.30605748 148.62667875 69.16259766 148.51187134 C71.1112762 148.43644274 73.06017939 148.36656347 75.00927734 148.30288696 C97.48590945 147.5602414 122.74708434 145.50676037 139.88964844 129.14663696 C140.51097656 128.55366821 141.13230469 127.96069946 141.77246094 127.34976196 C152.15750437 116.47019265 155.74520166 102.79996006 155.88964844 88.14663696 C154.87724364 72.57488701 150.80877433 60.09673205 139.63964844 48.88882446 C120.13393182 32.01381305 93.091408 31.86484825 68.76855469 31.73257446 C66.57038171 31.7138259 64.37221565 31.69424987 62.17405701 31.67388916 C56.43842684 31.62295114 50.70277344 31.5831223 44.96704102 31.54574585 C39.09418166 31.50546351 33.22141575 31.45448274 27.34863281 31.40444946 C15.86237069 31.30814509 4.37605534 31.22359733 -7.11035156 31.14663696 C-7.13500778 26.89249074 -7.15319055 22.63838198 -7.1652832 18.38418579 C-7.17032257 16.93593624 -7.17715409 15.4876918 -7.18579102 14.03945923 C-7.19787403 11.96189108 -7.20358368 9.88438999 -7.20800781 7.80679321 C-7.21324463 6.55519409 -7.21848145 5.30359497 -7.22387695 4.0140686 C-7.01904973 -1.15947067 -4.57539865 0.02452699 0 0 Z " fill="#7F0946" transform="translate(45.1103515625,68.85336303710938)"/>
<path d="M0 0 C2.2530001 1.4562021 3.28134094 2.76376253 4.73542786 5.0090332 C5.24149063 5.78005371 5.74755341 6.55107422 6.26895142 7.34545898 C6.81049362 8.19092285 7.35203583 9.03638672 7.9099884 9.9074707 C8.49346542 10.80062988 9.07694244 11.69378906 9.67810059 12.61401367 C11.55987719 15.49781447 13.42888815 18.38961431 15.29670715 21.2824707 C16.4800189 23.10599318 17.6642566 24.92891513 18.84944153 26.7512207 C19.74305641 28.1351149 19.74305641 28.1351149 20.65472412 29.54696655 C21.9327955 31.49133604 23.24023955 33.41664687 24.5730896 35.32388306 C28.31143614 40.75226168 31.32236471 45.84749659 33.8162117 51.92961311 C38.23063721 62.51789124 43.54206095 73.55374013 53.98420715 79.2824707 C72.08399114 85.34269639 93.82803906 82.99812821 112.64974529 82.17678046 C121.64256284 81.79242134 130.63893228 81.68486861 139.63837337 81.55867767 C153.76642415 81.35351965 167.85630555 80.78986553 181.98420715 80.2824707 C181.98420715 58.5024707 181.98420715 36.7224707 181.98420715 14.2824707 C192.54420715 14.2824707 203.10420715 14.2824707 213.98420715 14.2824707 C213.98420715 70.7124707 213.98420715 127.1424707 213.98420715 185.2824707 C203.42420715 185.2824707 192.86420715 185.2824707 181.98420715 185.2824707 C181.98420715 160.2024707 181.98420715 135.1224707 181.98420715 109.2824707 C166.03012512 110.03077148 166.03012512 110.03077148 149.7537384 110.79418945 C142.95835706 111.01427752 136.16560549 111.22304439 129.36897278 111.38208008 C118.60793145 111.63592581 107.86172646 111.93296277 97.11335754 112.52636719 C37.55688809 115.74857524 37.55688809 115.74857524 24.03337097 105.30886841 C14.16970547 96.01916447 8.4221559 83.83784404 3.26756287 71.50497437 C0.37572029 64.64346868 -3.57928834 58.91170441 -7.9103241 52.88012695 C-9.11029232 51.07567296 -10.30150502 49.2653564 -11.48258972 47.44848633 C-12.03422791 46.60713135 -12.58586609 45.76577637 -13.15422058 44.89892578 C-13.98288635 43.63471802 -13.98288635 43.63471802 -14.82829285 42.3449707 C-16.61492795 39.62486208 -18.40229712 36.90523777 -20.19007874 34.18588257 C-21.30906517 32.48275778 -22.42690498 30.77887891 -23.54341125 29.0741272 C-25.87167087 25.52226002 -28.20974835 21.98032366 -30.61100769 18.47729492 C-31.34657898 17.40108887 -32.08215027 16.32488281 -32.8400116 15.21606445 C-33.46351501 14.31815186 -34.08701843 13.42023926 -34.72941589 12.49511719 C-36.01579285 10.2824707 -36.01579285 10.2824707 -36.01579285 7.2824707 C-34.21948425 7.04463867 -34.21948425 7.04463867 -32.3868866 6.80200195 C-22.79173389 5.45105988 -14.05341692 3.61554622 -5.0196991 0.07543945 C-2.01579285 -0.7175293 -2.01579285 -0.7175293 0 0 Z " fill="#D90B84" transform="translate(177.0157928466797,259.717529296875)"/>
<path d="M0 0 C0 81.51 0 163.02 0 247 C-12.21 247 -24.42 247 -37 247 C-37 165.49 -37 83.98 -37 0 C-4 -1 -4 -1 0 0 Z " fill="#810847" transform="translate(75,122)"/>
<path d="M0 0 C2.61376953 -0.34057617 2.61376953 -0.34057617 5.8828125 -0.29296875 C7.04941406 -0.28330078 8.21601563 -0.27363281 9.41796875 -0.26367188 C10.64128906 -0.23853516 11.86460937 -0.21339844 13.125 -0.1875 C14.97158203 -0.16719727 14.97158203 -0.16719727 16.85546875 -0.14648438 C19.90407843 -0.11103543 22.951825 -0.06162079 26 0 C28.53781865 7.61345595 29.31977944 17.96130566 25.91308594 25.36083984 C23.02046787 29.96809131 19.4611374 33.99218695 15.80029297 38.00048828 C12.98362091 41.12885066 10.41343187 44.44235803 7.8125 47.75 C6.81757424 48.98921989 5.82150008 50.22751875 4.82421875 51.46484375 C1.80280695 55.23215701 -1.14499948 59.05175565 -4.07983398 62.88696289 C-9.40330542 69.84278397 -14.79500736 76.745495 -20.17675781 83.65625 C-21.98230242 85.97725003 -23.78461948 88.30071868 -25.5859375 90.625 C-31.57905461 98.35374757 -37.61263462 106.04408843 -43.74047852 113.66650391 C-47.31260284 118.11805833 -50.81089758 122.62101419 -54.2800293 127.15307617 C-57.35051038 131.16245962 -60.44626046 135.15106982 -63.5625 139.125 C-63.97314697 139.65037354 -64.38379395 140.17574707 -64.80688477 140.71704102 C-65.67601858 141.82337979 -66.56498632 142.91432289 -67.46948242 143.99194336 C-69.12461498 146.06695686 -69.12461498 146.06695686 -70.6027832 148.85375977 C-73.12102443 152.83038501 -75.37809412 156.30514559 -80.14828491 157.56933594 C-86.4428847 158.38067064 -92.74381449 158.00125468 -99.0625 157.6875 C-100.99660556 157.63225836 -102.93086274 157.58207955 -104.86523438 157.53710938 C-109.58059598 157.41652146 -114.28861764 157.22713495 -119 157 C-117.5426654 153.1638451 -116.00466074 150.55015061 -113.3125 147.4375 C-108.95254746 142.23909504 -104.86202769 136.88064238 -100.8125 131.4375 C-93.11112875 121.10561525 -85.21418773 110.93703707 -77.27050781 100.79101562 C-69.89209138 91.3609583 -62.62796485 81.8591273 -55.47167969 72.25927734 C-51.20610639 66.55665708 -46.82261661 60.96914408 -42.34277344 55.43408203 C-38.31869612 50.44514378 -34.46956822 45.33923367 -30.64428711 40.19702148 C-25.09123372 32.74696788 -19.36282449 25.43551514 -13.64550781 18.11132812 C-11.17063161 14.93584899 -8.70742971 11.75149255 -6.25 8.5625 C-5.08210938 7.04849609 -5.08210938 7.04849609 -3.890625 5.50390625 C-2.53677906 3.71089954 -1.24625863 1.86938795 0 0 Z " fill="#D90B83" transform="translate(361,162)"/>
<path d="M0 0 C2.2530001 1.4562021 3.28134094 2.76376253 4.73542786 5.0090332 C5.24229126 5.78124207 5.74915466 6.55345093 6.27137756 7.34906006 C6.81211914 8.19333557 7.35286072 9.03761108 7.9099884 9.9074707 C8.48625977 10.78993469 9.06253113 11.67239868 9.65626526 12.581604 C11.54476247 15.47655075 13.42058309 18.37949342 15.29670715 21.2824707 C17.91225141 25.30087126 20.5341746 29.31509507 23.15608215 33.3293457 C23.81403275 34.33858093 24.47198334 35.34781616 25.14987183 36.38763428 C29.33315818 42.79409007 33.57040965 49.15992278 37.87483215 55.4855957 C38.4050145 56.2647937 38.93519684 57.0439917 39.48144531 57.84680176 C41.48518934 60.78705729 43.49185486 63.72522733 45.50730896 66.6574707 C50.11281258 73.35825985 54.50740941 79.90744519 57.98420715 87.2824707 C58.84982497 88.39009621 59.74647513 89.47413513 60.67170715 90.5324707 C62.89995654 93.18228078 63.24605302 94.118953 63.98420715 97.2824707 C65.29550637 98.6374799 66.63112403 99.96918414 67.98420715 101.2824707 C70.98420715 105.67532785 70.98420715 105.67532785 70.98420715 109.2824707 C57.96148689 111.97247906 42.62497629 114.67738605 29.98420715 109.2824707 C18.0837501 100.87973622 11.30115271 84.97512522 4.50813293 72.53393555 C-0.72920599 63.05991831 -6.8566491 54.16642379 -12.90849304 45.2010498 C-15.94664944 40.68119571 -18.92785964 36.12434224 -21.9103241 31.56762695 C-26.21429385 24.99150063 -26.21429385 24.99150063 -30.61100769 18.47729492 C-31.34657898 17.40108887 -32.08215027 16.32488281 -32.8400116 15.21606445 C-33.46351501 14.31815186 -34.08701843 13.42023926 -34.72941589 12.49511719 C-36.01579285 10.2824707 -36.01579285 10.2824707 -36.01579285 7.2824707 C-34.21948425 7.04463867 -34.21948425 7.04463867 -32.3868866 6.80200195 C-22.79173389 5.45105988 -14.05341692 3.61554622 -5.0196991 0.07543945 C-2.01579285 -0.7175293 -2.01579285 -0.7175293 0 0 Z " fill="#7F0946" transform="translate(177.0157928466797,259.717529296875)"/>
<path d="M0 0 C3.74350736 2.06274895 7.30223643 4.15864996 10.75 6.6875 C13.79875514 9.09533195 13.79875514 9.09533195 17 10 C17 7.03 17 4.06 17 1 C17.66 0.67 18.32 0.34 19 0 C28.69193664 6.7756689 38.30864748 13.63820209 47.79956055 20.69335938 C51.8872811 23.72733587 55.99768306 26.71696891 60.16796875 29.63671875 C61.41525757 30.51565796 61.41525757 30.51565796 62.68774414 31.41235352 C64.27824706 32.5299913 65.87486526 33.63899106 67.47827148 34.73803711 C68.18927002 35.23956299 68.90026855 35.74108887 69.6328125 36.2578125 C70.26074707 36.6923877 70.88868164 37.12696289 71.53564453 37.57470703 C73.30742167 39.29922102 73.61862847 40.59150698 74 43 C72.99324219 43.70382813 71.98648438 44.40765625 70.94921875 45.1328125 C63.08729909 50.64647722 55.28284593 56.22701933 47.5625 61.9375 C46.78156982 62.5140332 46.00063965 63.09056641 45.19604492 63.68457031 C41.94775158 66.08271527 38.69968089 68.4811159 35.45654297 70.88623047 C32.9760586 72.72276573 30.48882688 74.54979306 28 76.375 C27.24017822 76.94081787 26.48035645 77.50663574 25.69750977 78.08959961 C24.64067993 78.86122437 24.64067993 78.86122437 23.5625 79.6484375 C22.94503906 80.10395996 22.32757813 80.55948242 21.69140625 81.02880859 C20 82 20 82 17 82 C16.67 78.7 16.34 75.4 16 72 C14.53626953 73.0828125 14.53626953 73.0828125 13.04296875 74.1875 C11.75808401 75.12537208 10.47291278 76.06285176 9.1875 77 C8.54490234 77.47695312 7.90230469 77.95390625 7.24023438 78.4453125 C6.61826172 78.89648438 5.99628906 79.34765625 5.35546875 79.8125 C4.49924927 80.44091797 4.49924927 80.44091797 3.62573242 81.08203125 C2 82 2 82 -1 82 C-1.33 78.37 -1.66 74.74 -2 71 C-6.95 74.63 -11.9 78.26 -17 82 C-19.47661304 79.52338696 -19.23492217 78.11669554 -19.24884033 74.73771667 C-19.24164978 74.00619888 -19.23445923 73.27468109 -19.22705078 72.52099609 C-19.22734283 71.75017197 -19.22763489 70.97934784 -19.22793579 70.18516541 C-19.22653974 67.63114255 -19.21096579 65.07740954 -19.1953125 62.5234375 C-19.19158334 60.75509806 -19.18873591 58.98675655 -19.18673706 57.21841431 C-19.17909293 52.55930905 -19.15943778 47.90032806 -19.1373291 43.24127197 C-19.11688744 38.48899008 -19.10773894 33.73668816 -19.09765625 28.984375 C-19.07619259 19.65619534 -19.04204728 10.32810799 -19 1 C-15.05986538 1.83654997 -12.66801629 3.50692108 -9.4375 5.9375 C-6.6518585 8.02011665 -3.89442894 10.07038071 -1 12 C-1.01160156 11.21753906 -1.02320312 10.43507812 -1.03515625 9.62890625 C-1.04417969 8.61699219 -1.05320312 7.60507813 -1.0625 6.5625 C-1.07410156 5.55316406 -1.08570312 4.54382813 -1.09765625 3.50390625 C-1 1 -1 1 0 0 Z M1 3 C0.12587222 6.92983944 -0.06964558 10.09432164 1 14 C4.97043971 18.80748547 11.14221045 23.04740348 17 25 C18.04282977 21.00634821 18.23765791 17.96635251 17 14 C12.82791798 9.41378777 7.28064144 6.15617529 2 3 C1.67 3 1.34 3 1 3 Z M19 3 C17.78666712 7.02858239 17.67230084 9.98248069 19 14 C23.00632615 18.33228889 28.47534433 21.24246011 33.43603516 24.34960938 C37.92269985 27.23761674 42.20367421 30.40125389 46.5 33.5625 C47.33055908 34.15844971 48.16111816 34.75439941 49.0168457 35.3684082 C50.16866333 36.20891724 50.16866333 36.20891724 51.34375 37.06640625 C52.02630859 37.56084229 52.70886719 38.05527832 53.41210938 38.56469727 C55 40 55 40 56 43 C55.11973145 43.42079834 55.11973145 43.42079834 54.22167969 43.85009766 C52.164756 44.91472519 50.34308919 46.06492258 48.453125 47.3984375 C47.78015381 47.87168457 47.10718262 48.34493164 46.41381836 48.83251953 C43.3893714 50.98850011 40.3754931 53.15907638 37.36181641 55.33007812 C35.04376147 56.96905846 32.69190599 58.54321997 30.32421875 60.109375 C28.86147618 61.11385126 27.39921787 62.11903317 25.9375 63.125 C25.24108398 63.56634277 24.54466797 64.00768555 23.82714844 64.46240234 C21.82845734 65.87243784 20.40236158 66.99056274 19 69 C18.44007927 72.41352363 18.5785081 75.57659127 19 79 C23.04239339 76.66086225 26.84126966 74.04269857 30.625 71.3125 C31.2447168 70.86753174 31.86443359 70.42256348 32.50292969 69.96411133 C36.96896107 66.75379176 41.41971993 63.52259219 45.86328125 60.28125 C50.83420575 56.66603218 55.82126157 53.0731428 60.80761719 49.47924805 C61.55043945 48.94340088 62.29326172 48.40755371 63.05859375 47.85546875 C63.72173584 47.37746826 64.38487793 46.89946777 65.06811523 46.40698242 C65.70563721 45.94267822 66.34315918 45.47837402 67 45 C67.7412915 44.48735596 68.48258301 43.97471191 69.24633789 43.4465332 C69.82504639 42.96917725 70.40375488 42.49182129 71 42 C71 41.34 71 40.68 71 40 C69.07463743 38.47394896 67.14827147 37.07420908 65.125 35.6875 C63.83024578 34.78194074 62.53599912 33.87565547 61.2421875 32.96875 C60.20529785 32.24558594 60.20529785 32.24558594 59.14746094 31.5078125 C55.48802956 28.9383891 51.87083666 26.3108882 48.25 23.6875 C46.73442835 22.59237408 45.2188026 21.49732303 43.703125 20.40234375 C40.44053275 18.04335488 37.18063286 15.68068869 33.921875 13.31640625 C33.0978418 12.71932861 32.27380859 12.12225098 31.42480469 11.50708008 C29.83602158 10.3558042 28.24809822 9.20334072 26.66113281 8.04956055 C25.94795898 7.53304932 25.23478516 7.01653809 24.5 6.484375 C23.8709375 6.02772461 23.241875 5.57107422 22.59375 5.10058594 C20.98206325 3.93259278 20.98206325 3.93259278 19 3 Z M19 17 C18.26761631 20.54355339 18.1156527 23.4724369 19 27 C22.22053312 30.64308534 25.99530519 33.27294241 30 36 C31.39647707 37.01995254 32.79244281 38.04060626 34.1875 39.0625 C35.5796875 40.0215625 35.5796875 40.0215625 37 41 C34.30059078 43.23171497 31.59726506 45.26487023 28.66796875 47.19140625 C21.92588716 51.42682542 21.92588716 51.42682542 18.15625 58.09765625 C18.18461845 60.84585026 18.40397978 63.32045612 19 66 C37.79425406 54.87304167 37.79425406 54.87304167 53 40 C52.19820312 39.42894531 51.39640625 38.85789062 50.5703125 38.26953125 C49.42186545 37.45053423 48.27342886 36.63152253 47.125 35.8125 C46.51237305 35.37631348 45.89974609 34.94012695 45.26855469 34.49072266 C41.53944271 31.8306475 37.82814375 29.14824735 34.1328125 26.44140625 C33.32183105 25.84932373 32.51084961 25.25724121 31.67529297 24.6472168 C30.06993454 23.47414484 28.46734537 22.29727288 26.86767578 21.11645508 C26.13274902 20.58044678 25.39782227 20.04443848 24.640625 19.4921875 C23.65884277 18.77071533 23.65884277 18.77071533 22.65722656 18.03466797 C21.0428661 16.8234685 21.0428661 16.8234685 19 17 Z M2.45605469 66.44677734 C0.29413178 68.75297345 0.00017142 70.57552324 0.0625 73.6875 C0.40385051 76.10079608 0.40385051 76.10079608 1 78 C7.07488428 75.76772991 12.55831219 72.76985375 17 68 C17.91793491 64.16182161 17.70287277 60.86225039 17 57 C12.69765895 57 5.71671201 63.69511328 2.45605469 66.44677734 Z " fill="#F633C2" transform="translate(112,120)"/>
<path d="M0 0 C0 25.41 0 50.82 0 77 C-10.56 77 -21.12 77 -32 77 C-32 51.92 -32 26.84 -32 1 C-5 0 -5 0 0 0 Z " fill="#810847" transform="translate(391,368)"/>
<path d="M0 0 C-0.70125 0.82242188 -1.4025 1.64484375 -2.125 2.4921875 C-11.94314331 13.24081459 -11.94314331 13.24081459 -20.13471985 25.10418701 C-22.45784503 27.46533951 -24.08921513 27.47075448 -27.32324219 27.49768066 C-28.04181396 27.48329956 -28.76038574 27.46891846 -29.50073242 27.45410156 C-30.6425573 27.45497772 -30.6425573 27.45497772 -31.80744934 27.45587158 C-34.32391948 27.45308448 -36.83920553 27.42196453 -39.35546875 27.390625 C-41.09995374 27.3831648 -42.84444711 27.37747082 -44.58894348 27.37347412 C-49.18080781 27.35820031 -53.77216617 27.31890368 -58.36383057 27.2746582 C-63.0491247 27.23374303 -67.73450059 27.21547115 -72.41992188 27.1953125 C-81.61350357 27.15241093 -90.80670972 27.08413863 -100 27 C-100.79951651 23.41744488 -101.11189283 21.47159185 -99.6875 18.0625 C-98.15001355 13.9734403 -97.47337177 10.0084677 -96.89453125 5.68359375 C-96.7241333 4.4298999 -96.55373535 3.17620605 -96.37817383 1.88452148 C-96.25337646 0.93262939 -96.1285791 -0.0192627 -96 -1 C-84.0739206 -1.17694947 -72.14774399 -1.34290644 -60.22131729 -1.49477577 C-54.68358504 -1.56563906 -49.14595832 -1.64030832 -43.60839844 -1.72363281 C-38.26577422 -1.80388475 -32.92310371 -1.87419505 -27.5802536 -1.93757248 C-25.54043496 -1.96352426 -23.50065888 -1.99307668 -21.46094513 -2.02626419 C-18.60712992 -2.0720866 -15.75343257 -2.10518044 -12.89941406 -2.13525391 C-12.05352722 -2.1517952 -11.20764038 -2.16833649 -10.33612061 -2.18537903 C-3.2570207 -2.236818 -3.2570207 -2.236818 0 0 Z " fill="#D80B83" transform="translate(334,163)"/>
<path d="M0 0 C10.56 0 21.12 0 32 0 C32 22.11 32 44.22 32 67 C21.77 67 11.54 67 1 67 C0 66 0 66 -0.12025452 63.37413025 C-0.11803391 62.20386795 -0.11581329 61.03360565 -0.11352539 59.82788086 C-0.11367142 59.18399918 -0.11381744 58.54011749 -0.1139679 57.87672424 C-0.11326885 55.73939697 -0.10547691 53.60215587 -0.09765625 51.46484375 C-0.09579204 49.98653715 -0.09436815 48.50822993 -0.09336853 47.02992249 C-0.08954359 43.13201198 -0.07971352 39.23413851 -0.06866455 35.33624268 C-0.05665516 30.66316239 -0.05204808 25.99006974 -0.04621124 21.31697845 C-0.03650174 14.21129318 -0.01734505 7.10568924 0 0 Z " fill="#7E0A46" transform="translate(359,274)"/>
<path d="M0 0 C5.09348409 3.06267686 9.67762132 7.84536396 11.5625 13.5 C12.49187706 26.8866042 12.49187706 26.8866042 8.5625 32.5 C7.7890625 33.7684375 7.7890625 33.7684375 7 35.0625 C1.81634939 40.24615061 -4.11616486 42.79478514 -11.4375 43.125 C-18.76851403 42.78533912 -25.29658529 40.16092995 -30.375 34.75 C-34.40100625 28.40599016 -36.24990819 22.52282259 -35.125 14.98828125 C-33.32951623 8.48985421 -29.74580365 3.84401746 -23.9375 0.4375 C-16.5915343 -2.75832798 -7.43906183 -3.221186 0 0 Z " fill="#7F0946" transform="translate(464.4375,329.5)"/>
<path d="M0 0 C10.56 0 21.12 0 32 0 C32 0.33 32 0.66 32 1 C21.77 1 11.54 1 1 1 C1 81.52 1 162.04 1 245 C12.22 245 23.44 245 35 245 C34.99555878 241.98961609 34.99111755 238.97923218 34.98654175 235.87762451 C34.94676049 208.28453239 34.91689423 180.69144752 34.89786934 153.09833418 C34.89536787 149.48336205 34.89277923 145.86838999 34.89013672 142.25341797 C34.8896121 141.53372905 34.88908748 140.81404013 34.88854696 140.07254246 C34.87983961 128.4128538 34.86406782 116.75318483 34.84569441 105.09350786 C34.82700454 93.13343852 34.81588521 81.17337951 34.81182301 69.21329618 C34.80932281 62.49389138 34.80329935 55.77452767 34.78853989 49.05513763 C34.77500026 42.73513459 34.77077002 36.41519477 34.77378464 30.0951786 C34.77323285 27.77154764 34.76923395 25.44791464 34.76158905 23.12429619 C34.75168451 19.9595556 34.75401473 16.79505585 34.75949097 13.63031006 C34.75366528 12.70424289 34.7478396 11.77817571 34.74183738 10.8240459 C34.74581948 9.97658337 34.74980158 9.12912084 34.75390434 8.25597763 C34.7531449 7.52539572 34.75238546 6.7948138 34.75160301 6.04209304 C35 4 35 4 37 0 C37 81.51 37 163.02 37 247 C24.79 247 12.58 247 0 247 C0 165.49 0 83.98 0 0 Z " fill="#6E1343" transform="translate(38,122)"/>
<path d="M0 0 C3.74350736 2.06274895 7.30223643 4.15864996 10.75 6.6875 C13.79875514 9.09533195 13.79875514 9.09533195 17 10 C17 7.03 17 4.06 17 1 C17.66 0.67 18.32 0.34 19 0 C28.69193664 6.7756689 38.30864748 13.63820209 47.79956055 20.69335938 C51.8872811 23.72733587 55.99768306 26.71696891 60.16796875 29.63671875 C61.41525757 30.51565796 61.41525757 30.51565796 62.68774414 31.41235352 C64.27824706 32.5299913 65.87486526 33.63899106 67.47827148 34.73803711 C68.18927002 35.23956299 68.90026855 35.74108887 69.6328125 36.2578125 C70.26074707 36.6923877 70.88868164 37.12696289 71.53564453 37.57470703 C73.30742167 39.29922102 73.61862847 40.59150698 74 43 C72.99324219 43.70382813 71.98648438 44.40765625 70.94921875 45.1328125 C63.08729909 50.64647722 55.28284593 56.22701933 47.5625 61.9375 C46.78156982 62.5140332 46.00063965 63.09056641 45.19604492 63.68457031 C41.94775158 66.08271527 38.69968089 68.4811159 35.45654297 70.88623047 C32.9760586 72.72276573 30.48882688 74.54979306 28 76.375 C27.24017822 76.94081787 26.48035645 77.50663574 25.69750977 78.08959961 C24.64067993 78.86122437 24.64067993 78.86122437 23.5625 79.6484375 C22.94503906 80.10395996 22.32757813 80.55948242 21.69140625 81.02880859 C20 82 20 82 17 82 C16.505 77.05 16.505 77.05 16 72 C15.02417969 72.721875 14.04835938 73.44375 13.04296875 74.1875 C11.75808401 75.12537208 10.47291278 76.06285176 9.1875 77 C8.54490234 77.47695312 7.90230469 77.95390625 7.24023438 78.4453125 C6.61826172 78.89648438 5.99628906 79.34765625 5.35546875 79.8125 C4.49924927 80.44091797 4.49924927 80.44091797 3.62573242 81.08203125 C2 82 2 82 -1 82 C-1.33 78.37 -1.66 74.74 -2 71 C-4.64 72.98 -7.28 74.96 -10 77 C-10.66 76.67 -11.32 76.34 -12 76 C-11.25 74.0625 -11.25 74.0625 -10 72 C-8.0625 71.4375 -8.0625 71.4375 -6 71 C-5.505 70.484375 -5.01 69.96875 -4.5 69.4375 C-3 68 -3 68 1 68 C1 71.3 1 74.6 1 78 C1.83144531 77.44570312 2.66289063 76.89140625 3.51953125 76.3203125 C7.6796875 73.546875 11.83984375 70.7734375 16 68 C16.36416047 65.56306689 16.36416047 65.56306689 16.1875 62.875 C16.16042969 61.96492188 16.13335937 61.05484375 16.10546875 60.1171875 C16.07066406 59.41851562 16.03585938 58.71984375 16 58 C15.34 57.67 14.68 57.34 14 57 C14.639375 56.896875 15.27875 56.79375 15.9375 56.6875 C16.618125 56.460625 17.29875 56.23375 18 56 C18.33 55.01 18.66 54.02 19 53 C19.66 53.33 20.32 53.66 21 54 C20.67 54.33 20.34 54.66 20 55 C19.92794489 56.68608966 19.91613932 58.37500659 19.9375 60.0625 C19.94652344 60.98160156 19.95554688 61.90070313 19.96484375 62.84765625 C19.97644531 63.55792969 19.98804688 64.26820313 20 65 C20.87785156 64.35998047 20.87785156 64.35998047 21.7734375 63.70703125 C22.63195312 63.08183594 23.49046875 62.45664063 24.375 61.8125 C25.36242187 61.09320313 26.34984375 60.37390625 27.3671875 59.6328125 C30.11430431 57.63704387 32.87202902 55.65650309 35.6328125 53.6796875 C36.43541504 53.10371826 37.23801758 52.52774902 38.06494141 51.93432617 C39.67238348 50.78120325 41.28140401 49.63027712 42.89208984 48.48168945 C43.6392627 47.94503662 44.38643555 47.40838379 45.15625 46.85546875 C45.82462891 46.37746826 46.49300781 45.89946777 47.18164062 45.40698242 C48.93847054 44.04760933 50.46889755 42.60617395 52 41 C41.55223085 32.27213388 30.35372006 24.49773967 19 17 C19.14095064 18.6254308 19.28792087 20.25034051 19.4375 21.875 C19.51871094 22.77992188 19.59992188 23.68484375 19.68359375 24.6171875 C19.86989285 27.01110861 19.86989285 27.01110861 21 29 C19.35 28.34 17.7 27.68 16 27 C16.33 22.71 16.66 18.42 17 14 C15.68 13.34 14.36 12.68 13 12 C11.06348659 10.65309542 9.14788028 9.27581639 7.25 7.875 C6.26515625 7.15054688 5.2803125 6.42609375 4.265625 5.6796875 C3.14414063 4.84824219 3.14414063 4.84824219 2 4 C1.67 6.97 1.34 9.94 1 13 C0.34 12.67 -0.32 12.34 -1 12 C-1.02687279 10.18757948 -1.04633715 8.37504767 -1.0625 6.5625 C-1.07410156 5.55316406 -1.08570312 4.54382813 -1.09765625 3.50390625 C-1 1 -1 1 0 0 Z M19 3 C17.78666712 7.02858239 17.67230084 9.98248069 19 14 C23.00632615 18.33228889 28.47534433 21.24246011 33.43603516 24.34960938 C37.92269985 27.23761674 42.20367421 30.40125389 46.5 33.5625 C47.33055908 34.15844971 48.16111816 34.75439941 49.0168457 35.3684082 C50.16866333 36.20891724 50.16866333 36.20891724 51.34375 37.06640625 C52.02630859 37.56084229 52.70886719 38.05527832 53.41210938 38.56469727 C55 40 55 40 56 43 C55.11973145 43.42079834 55.11973145 43.42079834 54.22167969 43.85009766 C52.164756 44.91472519 50.34308919 46.06492258 48.453125 47.3984375 C47.78015381 47.87168457 47.10718262 48.34493164 46.41381836 48.83251953 C43.3893714 50.98850011 40.3754931 53.15907638 37.36181641 55.33007812 C35.04376147 56.96905846 32.69190599 58.54321997 30.32421875 60.109375 C28.86147618 61.11385126 27.39921787 62.11903317 25.9375 63.125 C25.24108398 63.56634277 24.54466797 64.00768555 23.82714844 64.46240234 C21.82845734 65.87243784 20.40236158 66.99056274 19 69 C18.44007927 72.41352363 18.5785081 75.57659127 19 79 C23.04239339 76.66086225 26.84126966 74.04269857 30.625 71.3125 C31.2447168 70.86753174 31.86443359 70.42256348 32.50292969 69.96411133 C36.96896107 66.75379176 41.41971993 63.52259219 45.86328125 60.28125 C50.83420575 56.66603218 55.82126157 53.0731428 60.80761719 49.47924805 C61.55043945 48.94340088 62.29326172 48.40755371 63.05859375 47.85546875 C63.72173584 47.37746826 64.38487793 46.89946777 65.06811523 46.40698242 C65.70563721 45.94267822 66.34315918 45.47837402 67 45 C67.7412915 44.48735596 68.48258301 43.97471191 69.24633789 43.4465332 C69.82504639 42.96917725 70.40375488 42.49182129 71 42 C71 41.34 71 40.68 71 40 C69.07463743 38.47394896 67.14827147 37.07420908 65.125 35.6875 C63.83024578 34.78194074 62.53599912 33.87565547 61.2421875 32.96875 C60.20529785 32.24558594 60.20529785 32.24558594 59.14746094 31.5078125 C55.48802956 28.9383891 51.87083666 26.3108882 48.25 23.6875 C46.73442835 22.59237408 45.2188026 21.49732303 43.703125 20.40234375 C40.44053275 18.04335488 37.18063286 15.68068869 33.921875 13.31640625 C33.0978418 12.71932861 32.27380859 12.12225098 31.42480469 11.50708008 C29.83602158 10.3558042 28.24809822 9.20334072 26.66113281 8.04956055 C25.94795898 7.53304932 25.23478516 7.01653809 24.5 6.484375 C23.8709375 6.02772461 23.241875 5.57107422 22.59375 5.10058594 C20.98206325 3.93259278 20.98206325 3.93259278 19 3 Z " fill="#B04592" transform="translate(112,120)"/>
<path d="M0 0 C0.33 0 0.66 0 1 0 C1 25.41 1 50.82 1 77 C-9.56 77 -20.12 77 -31 77 C-31 52.58 -31 28.16 -31 3 C-30.67 3 -30.34 3 -30 3 C-29.25772083 7.63435609 -28.87732928 12.0699225 -28.88647461 16.76147461 C-28.88655014 18.06229477 -28.88662567 19.36311493 -28.88670349 20.70335388 C-28.89180859 22.10301757 -28.89702456 23.50268086 -28.90234375 24.90234375 C-28.90421134 26.34965465 -28.90563363 27.79696619 -28.90663147 29.24427795 C-28.91042982 33.0335976 -28.9202369 36.82287826 -28.93133545 40.61218262 C-28.943417 45.16943812 -28.94796459 49.72670673 -28.95378876 54.28397369 C-28.96345034 61.18934282 -28.98262556 68.09462658 -29 75 C-19.76 75 -10.52 75 -1 75 C-1.00523682 72.8346167 -1.01047363 70.6692334 -1.01586914 68.43823242 C-1.03242721 61.28967115 -1.04348014 54.14110904 -1.05181217 46.99253368 C-1.05703427 42.65769119 -1.06411976 38.32286831 -1.07543945 33.98803711 C-1.08629217 29.80593485 -1.09228192 25.62385148 -1.09487724 21.44173622 C-1.09672718 19.84491999 -1.10033955 18.24810482 -1.10573006 16.65129662 C-1.1129721 14.41749194 -1.1139896 12.18376567 -1.11352539 9.94995117 C-1.115746 8.67754074 -1.11796661 7.40513031 -1.12025452 6.09416199 C-1 3 -1 3 0 0 Z " fill="#6B1240" transform="translate(390,368)"/>
<path d="M0 0 C0.495 1.98 0.495 1.98 1 4 C0.53851563 4.3309668 0.07703125 4.66193359 -0.3984375 5.00292969 C-8.76279994 11.00758316 -17.10033729 17.03826184 -25.3125 23.25 C-31.2153265 27.71223832 -37.21354004 31.99323731 -43.328125 36.16015625 C-45.96115167 37.92463826 -45.96115167 37.92463826 -48.171875 39.74609375 C-50 41 -50 41 -53 41 C-53.33 37.37 -53.66 33.74 -54 30 C-56.64 31.98 -59.28 33.96 -62 36 C-62.66 35.67 -63.32 35.34 -64 35 C-63.25 33.0625 -63.25 33.0625 -62 31 C-60.0625 30.4375 -60.0625 30.4375 -58 30 C-57.505 29.484375 -57.01 28.96875 -56.5 28.4375 C-55 27 -55 27 -51 27 C-51 30.3 -51 33.6 -51 37 C-49.75283203 36.16855469 -49.75283203 36.16855469 -48.48046875 35.3203125 C-44.3203125 32.546875 -40.16015625 29.7734375 -36 27 C-35.63583953 24.56306689 -35.63583953 24.56306689 -35.8125 21.875 C-35.83957031 20.96492188 -35.86664063 20.05484375 -35.89453125 19.1171875 C-35.92933594 18.41851562 -35.96414062 17.71984375 -36 17 C-36.66 16.67 -37.32 16.34 -38 16 C-37.360625 15.896875 -36.72125 15.79375 -36.0625 15.6875 C-35.381875 15.460625 -34.70125 15.23375 -34 15 C-33.67 14.01 -33.34 13.02 -33 12 C-32.34 12.33 -31.68 12.66 -31 13 C-31.33 13.33 -31.66 13.66 -32 14 C-32.07205511 15.68608966 -32.08386068 17.37500659 -32.0625 19.0625 C-32.05347656 19.98160156 -32.04445312 20.90070313 -32.03515625 21.84765625 C-32.02355469 22.55792969 -32.01195312 23.26820313 -32 24 C-31.41476563 23.57332031 -30.82953125 23.14664063 -30.2265625 22.70703125 C-29.36804688 22.08183594 -28.50953125 21.45664063 -27.625 20.8125 C-26.14386719 19.73355469 -26.14386719 19.73355469 -24.6328125 18.6328125 C-21.88569569 16.63704387 -19.12797098 14.65650309 -16.3671875 12.6796875 C-15.56458496 12.10371826 -14.76198242 11.52774902 -13.93505859 10.93432617 C-12.32761652 9.78120325 -10.71859599 8.63027712 -9.10791016 7.48168945 C-8.3607373 6.94503662 -7.61356445 6.40838379 -6.84375 5.85546875 C-6.17537109 5.37746826 -5.50699219 4.89946777 -4.81835938 4.40698242 C-3.06152946 3.04760933 -1.53110245 1.60617395 0 0 Z " fill="#B8449A" transform="translate(164,161)"/>
<path d="M0 0 C0.99 0 1.98 0 3 0 C3.33 1.98 3.66 3.96 4 6 C71.815 6.495 71.815 6.495 141 7 C141 7.33 141 7.66 141 8 C95.46 8 49.92 8 3 8 C0 2 0 2 0 0 Z " fill="#C00E76" transform="translate(245,361)"/>
<path d="M0 0 C42.24 0 84.48 0 128 0 C128 0.33 128 0.66 128 1 C86.75 1.33 45.5 1.66 3 2 C4.85529281 5.91731018 4.85529281 5.91731018 7 9 C6.67 9.99 6.34 10.98 6 12 C3.69 8.7 1.38 5.4 -1 2 C-0.67 1.34 -0.34 0.68 0 0 Z " fill="#B7227E" transform="translate(232,340)"/>
<path d="M0 0 C-1.98 2.31 -3.96 4.62 -6 7 C-6.99 5.02 -6.99 5.02 -8 3 C-7.01 3.33 -6.02 3.66 -5 4 C-5 3.01 -5 2.02 -5 1 C-16.29157483 0.97685346 -27.58314404 0.95907308 -38.87473774 0.94818783 C-44.11759083 0.94296408 -49.36042772 0.9358756 -54.60327148 0.92456055 C-59.66069384 0.91371369 -64.71810059 0.90771933 -69.77553368 0.90512276 C-71.7072798 0.90327176 -73.63902504 0.89965736 -75.57076454 0.89426994 C-78.27156054 0.8870357 -80.97229161 0.88601007 -83.6730957 0.88647461 C-84.47582413 0.88287933 -85.27855255 0.87928406 -86.10560608 0.87557983 C-89.3359513 0.88161204 -91.91264897 0.97088299 -95 2 C-95.33 6.29 -95.66 10.58 -96 15 C-96.66 15 -97.32 15 -98 15 C-97.34 9.72 -96.68 4.44 -96 -1 C-84.0739206 -1.17694947 -72.14774399 -1.34290644 -60.22131729 -1.49477577 C-54.68358504 -1.56563906 -49.14595832 -1.64030832 -43.60839844 -1.72363281 C-38.26577422 -1.80388475 -32.92310371 -1.87419505 -27.5802536 -1.93757248 C-25.54043496 -1.96352426 -23.50065888 -1.99307668 -21.46094513 -2.02626419 C-18.60712992 -2.0720866 -15.75343257 -2.10518044 -12.89941406 -2.13525391 C-12.05352722 -2.1517952 -11.20764038 -2.16833649 -10.33612061 -2.18537903 C-6.0744766 -2.21634548 -3.90395558 -1.95197779 0 0 Z " fill="#C7167D" transform="translate(334,163)"/>
<path d="M0 0 C3.14364834 0.71160767 5.15995402 1.61996552 7.75 3.5625 C8.67039062 4.24505859 8.67039062 4.24505859 9.609375 4.94140625 C10.29773438 5.46541016 10.29773438 5.46541016 11 6 C10.01 6.33 9.02 6.66 8 7 C6.02 6.01 4.04 5.02 2 4 C2 28.42 2 52.84 2 78 C4.475 77.01 4.475 77.01 7 76 C5.35 77.65 3.7 79.3 2 81 C-0.47661304 78.52338696 -0.23492217 77.11669554 -0.24884033 73.73771667 C-0.24164978 73.00619888 -0.23445923 72.27468109 -0.22705078 71.52099609 C-0.22734283 70.75017197 -0.22763489 69.97934784 -0.22793579 69.18516541 C-0.22653974 66.63114255 -0.21096579 64.07740954 -0.1953125 61.5234375 C-0.19158334 59.75509806 -0.18873591 57.98675655 -0.18673706 56.21841431 C-0.17909293 51.55930905 -0.15943778 46.90032806 -0.1373291 42.24127197 C-0.11688744 37.48899008 -0.10773894 32.73668816 -0.09765625 27.984375 C-0.07619259 18.65619534 -0.04204728 9.32810799 0 0 Z " fill="#D744B1" transform="translate(93,121)"/>
<path d="M0 0 C0.33 0.99 0.66 1.98 1 3 C1.66 3 2.32 3 3 3 C3 3.66 3 4.32 3 5 C-6.9 5 -16.8 5 -27 5 C-27.33 4.34 -27.66 3.68 -28 3 C-19.09 3 -10.18 3 -1 3 C-0.67 2.01 -0.34 1.02 0 0 Z " fill="#960357" transform="translate(387,336)"/>
<path d="M0 0 C0 3.96174147 -1.11969883 5.59559402 -3.66796875 8.546875 C-8.62761884 11.63731023 -15.36343482 10.45178576 -21 10 C-20.67 9.34 -20.34 8.68 -20 8 C-15.38 8 -10.76 8 -6 8 C-6.33 6.02 -6.66 4.04 -7 2 C-4.69 1.34 -2.38 0.68 0 0 Z " fill="#C11B79" transform="translate(289,309)"/>
<path d="M0 0 C5.3762621 2.91214197 10.17918273 6.24351901 15 10 C14.34 10.66 13.68 11.32 13 12 C9.37 9.36 5.74 6.72 2 4 C1.67 6.97 1.34 9.94 1 13 C0.34 12.67 -0.32 12.34 -1 12 C-1.02687279 10.18757948 -1.04633715 8.37504767 -1.0625 6.5625 C-1.07410156 5.55316406 -1.08570312 4.54382813 -1.09765625 3.50390625 C-1 1 -1 1 0 0 Z " fill="#AC428C" transform="translate(112,120)"/>
<path d="M0 0 C0 4.24645065 -1.81750806 6.38524772 -4 10 C0.62 10 5.24 10 10 10 C10.33 10.66 10.66 11.32 11 12 C4.73 12 -1.54 12 -8 12 C-6.38617965 7.96544911 -5.59503354 6.20318936 -2.875 3.1875 C-2.33617187 2.58292969 -1.79734375 1.97835938 -1.2421875 1.35546875 C-0.83226562 0.90816406 -0.42234375 0.46085937 0 0 Z " fill="#C01A7B" transform="translate(250,307)"/>
<path d="M0 0 C-1.98 2.31 -3.96 4.62 -6 7 C-6.66 5.68 -7.32 4.36 -8 3 C-7.01 3.33 -6.02 3.66 -5 4 C-5 3.01 -5 2.02 -5 1 C-15.23 0.67 -25.46 0.34 -36 0 C-36 -0.33 -36 -0.66 -36 -1 C-31.5163955 -1.19272034 -27.0325155 -1.3713676 -22.54785156 -1.53710938 C-21.0229599 -1.59543502 -19.49820906 -1.65757438 -17.97363281 -1.72363281 C-15.77955776 -1.81803239 -13.58533851 -1.89861231 -11.390625 -1.9765625 C-10.37165131 -2.02485703 -10.37165131 -2.02485703 -9.33209229 -2.0741272 C-5.33199759 -2.20013276 -3.72297536 -1.86148768 0 0 Z " fill="#BE1C73" transform="translate(334,163)"/>
<path d="M0 0 C0.66 0.33 1.32 0.66 2 1 C2.33 1.99 2.66 2.98 3 4 C4.94603274 4.59070014 4.94603274 4.59070014 7 5 C7.66 5.66 8.32 6.32 9 7 C7.35 7 5.7 7 4 7 C4.14095064 8.6254308 4.28792087 10.25034051 4.4375 11.875 C4.51871094 12.77992188 4.59992188 13.68484375 4.68359375 14.6171875 C4.86989285 17.01110861 4.86989285 17.01110861 6 19 C3.525 18.01 3.525 18.01 1 17 C1.33 12.71 1.66 8.42 2 4 C1.01 3.67 0.02 3.34 -1 3 C-0.67 2.01 -0.34 1.02 0 0 Z " fill="#B44297" transform="translate(127,130)"/>
<path d="M0 0 C1 2 1 2 0.5625 4.25 C-1.70951806 8.24875179 -5.09575437 10.63305109 -9 13 C-9.66 13 -10.32 13 -11 13 C-11 13.66 -11 14.32 -11 15 C-11.99 15 -12.98 15 -14 15 C-14 15.66 -14 16.32 -14 17 C-15.32 16.67 -16.64 16.34 -18 16 C-17.3709375 15.59910156 -16.741875 15.19820312 -16.09375 14.78515625 C-9.72287761 10.55389914 -4.81448367 5.93069078 0 0 Z " fill="#6F1240" transform="translate(192,190)"/>
<path d="M0 0 C0.99 0.66 1.98 1.32 3 2 C-0.51129448 6.18700751 -4.13395587 10.13395587 -8 14 C-9.02813611 15.31175986 -10.04084432 16.6369893 -11 18 C-11.66 17.67 -12.32 17.34 -13 17 C-11.022126 14.35319808 -9.04248453 11.70772337 -7.0625 9.0625 C-6.49853516 8.30775391 -5.93457031 7.55300781 -5.35351562 6.77539062 C-4.54624023 5.69741211 -4.54624023 5.69741211 -3.72265625 4.59765625 C-3.22515869 3.93258057 -2.72766113 3.26750488 -2.21508789 2.58227539 C-1 1 -1 1 0 0 Z " fill="#C2197C" transform="translate(346,182)"/>
<path d="M0 0 C0.66 0.33 1.32 0.66 2 1 C0.23454414 3.29599183 -1.53700951 5.58678905 -3.3125 7.875 C-3.81201172 8.52597656 -4.31152344 9.17695313 -4.82617188 9.84765625 C-5.31279297 10.47285156 -5.79941406 11.09804687 -6.30078125 11.7421875 C-6.96847534 12.60626221 -6.96847534 12.60626221 -7.6496582 13.48779297 C-9 15 -9 15 -12 17 C-12 16.01 -12 15.02 -12 14 C-11.34 14 -10.68 14 -10 14 C-9.87625 13.38125 -9.7525 12.7625 -9.625 12.125 C-9 10 -9 10 -7 8 C-6.34 7.67 -5.68 7.34 -5 7 C-4.67 6.01 -4.34 5.02 -4 4 C-3.34 4 -2.68 4 -2 4 C-2 3.01 -2 2.02 -2 1 C-1.34 0.67 -0.68 0.34 0 0 Z " fill="#C11976" transform="translate(325,170)"/>
<path d="M0 0 C0.66 0.33 1.32 0.66 2 1 C0.37965717 3.14949538 -1.24595794 5.2946141 -2.875 7.4375 C-3.33519531 8.04916016 -3.79539062 8.66082031 -4.26953125 9.29101562 C-7.7734375 13.88671875 -7.7734375 13.88671875 -10 15 C-10.36458333 10.50347222 -10.36458333 10.50347222 -8.6875 8.1875 C-7 7 -7 7 -4 7 C-4 5.68 -4 4.36 -4 3 C-3.01 3 -2.02 3 -1 3 C-0.67 2.01 -0.34 1.02 0 0 Z " fill="#C21673" transform="translate(333,252)"/>
<path d="M0 0 C4.69159716 3.38772897 9.0299782 6.78185183 13 11 C12.67 11.66 12.34 12.32 12 13 C9.5625 12.25 9.5625 12.25 7 11 C6.6278958 9.67696283 6.29369827 8.34262065 6 7 C4.06669397 5.90833725 4.06669397 5.90833725 2 5 C0 2 0 2 0 0 Z " fill="#6D0E3E" transform="translate(210,91)"/>
<path d="M0 0 C0.66 0.33 1.32 0.66 2 1 C-0.97 4.63 -3.94 8.26 -7 12 C-8 9 -8 9 -6.875 6 C-4.86644151 2.78630641 -3.447301 1.50266966 0 0 Z " fill="#C91877" transform="translate(378,195)"/>
<path d="M0 0 C-5.28812538 3.47505382 -9.5494304 4.13795867 -15.8125 4.0625 C-17.27623047 4.04896484 -17.27623047 4.04896484 -18.76953125 4.03515625 C-19.87361328 4.01775391 -19.87361328 4.01775391 -21 4 C-21 3.67 -21 3.34 -21 3 C-18.06449875 2.30278105 -15.12712524 1.61690995 -12.1875 0.9375 C-11.35412109 0.73833984 -10.52074219 0.53917969 -9.66210938 0.33398438 C-8.85966797 0.15029297 -8.05722656 -0.03339844 -7.23046875 -0.22265625 C-6.12288208 -0.48187866 -6.12288208 -0.48187866 -4.99291992 -0.74633789 C-3 -1 -3 -1 0 0 Z " fill="#6D1141" transform="translate(170,263)"/>
<path d="M0 0 C1 2 1 2 1 6 C-0.175625 6.12375 -0.175625 6.12375 -1.375 6.25 C-4.11221696 6.71722133 -4.11221696 6.71722133 -5.1875 8.875 C-5.455625 9.57625 -5.72375 10.2775 -6 11 C-6.99 12.485 -6.99 12.485 -8 14 C-8.66 13.67 -9.32 13.34 -10 13 C-5.05 6.565 -5.05 6.565 0 0 Z " fill="#C01979" transform="translate(303,238)"/>
<path d="M0 0 C0.33 1.32 0.66 2.64 1 4 C0.01 4 -0.98 4 -2 4 C-2.99 6.97 -3.98 9.94 -5 13 C-6.32 13 -7.64 13 -9 13 C-7.50923566 9.7173068 -5.61379679 7.06922559 -3.375 4.25 C-2.74335938 3.45078125 -2.11171875 2.6515625 -1.4609375 1.828125 C-0.97882813 1.22484375 -0.49671875 0.6215625 0 0 Z " fill="#C41777" transform="translate(313,225)"/>
<path d="M0 0 C5.96652354 1.57013777 10.82909025 4.75029782 16 8 C15.01 8.33 14.02 8.66 13 9 C12.34 8.34 11.68 7.68 11 7 C9.33678518 6.64984951 7.66965451 6.31802943 6 6 C3.24140774 4.97538002 2.25723543 4.43730023 0.75 1.875 C0.5025 1.25625 0.255 0.6375 0 0 Z " fill="#6D113F" transform="translate(192,81)"/>
<path d="M0 0 C1.32 0.33 2.64 0.66 4 1 C1.69 3.97 -0.62 6.94 -3 10 C-4 6 -4 6 -3 4 C-2.34 4 -1.68 4 -1 4 C-0.67 2.68 -0.34 1.36 0 0 Z " fill="#C2167B" transform="translate(295,298)"/>
<path d="M0 0 C0 0.66 0 1.32 0 2 C-0.886875 2.4125 -1.77375 2.825 -2.6875 3.25 C-5.81312366 4.90127288 -8.31905614 6.71331259 -11 9 C-11.66 8.67 -12.32 8.34 -13 8 C-12.25 6.0625 -12.25 6.0625 -11 4 C-9.0625 3.4375 -9.0625 3.4375 -7 3 C-6.505 2.484375 -6.01 1.96875 -5.5 1.4375 C-4 0 -4 0 0 0 Z " fill="#D240A9" transform="translate(113,188)"/>
<path d="M0 0 C0.99 0.33 1.98 0.66 3 1 C-0.11016455 4.28788824 -3.01618925 6.83735988 -7 9 C-7.33 8.01 -7.66 7.02 -8 6 C-6.7391988 4.96680187 -5.46596742 3.94875621 -4.1875 2.9375 C-3.47980469 2.36902344 -2.77210938 1.80054688 -2.04296875 1.21484375 C-1.36878906 0.81394531 -0.69460937 0.41304687 0 0 Z " fill="#BE449E" transform="translate(159,178)"/>
<path d="M0 0 C1.5312977 3.0625954 1.04905767 4.78726088 0 8 C-2.27992689 9.48167911 -4.38064473 10.14275646 -7 11 C-5.22054913 6.95579349 -2.60470327 3.53921513 0 0 Z " fill="#C61878" transform="translate(358,166)"/>
<path d="M0 0 C-0.36405249 2.70438996 -0.68142682 3.74406383 -2.84765625 5.484375 C-3.57855469 5.90203125 -4.30945313 6.3196875 -5.0625 6.75 C-5.79597656 7.17796875 -6.52945313 7.6059375 -7.28515625 8.046875 C-7.85105469 8.36140625 -8.41695312 8.6759375 -9 9 C-9.33 8.01 -9.66 7.02 -10 6 C-8.71283353 4.99421411 -7.42011342 3.99553202 -6.125 3 C-5.40570313 2.443125 -4.68640625 1.88625 -3.9453125 1.3125 C-2 0 -2 0 0 0 Z " fill="#BE439D" transform="translate(183,162)"/>
<path d="M0 0 C0.66 0.33 1.32 0.66 2 1 C1.67 1.99 1.34 2.98 1 4 C-0.7015625 4.2165625 -0.7015625 4.2165625 -2.4375 4.4375 C-5.80777201 4.61171478 -5.80777201 4.61171478 -7 6 C-8.66617115 6.04063832 -10.33388095 6.042721 -12 6 C-9.48617788 4.32411859 -7.17052712 3.05969689 -4.4375 1.8125 C-3.65246094 1.44769531 -2.86742187 1.08289063 -2.05859375 0.70703125 C-1.37925781 0.47371094 -0.69992188 0.24039063 0 0 Z " fill="#6B113F" transform="translate(172,207)"/>
<path d="M0 0 C1.875 0.25 1.875 0.25 4 1 C5.125 2.875 5.125 2.875 6 5 C6.99 6.485 6.99 6.485 8 8 C7.67 8.99 7.34 9.98 7 11 C5.83051998 9.35616456 4.6644855 7.70987731 3.5 6.0625 C2.8503125 5.14597656 2.200625 4.22945313 1.53125 3.28515625 C0 1 0 1 0 0 Z " fill="#C51274" transform="translate(231,341)"/>
<path d="M0 0 C4.81033104 2.54664585 8.32442148 4.99027798 12 9 C10.35 8.67 8.7 8.34 7 8 C7 7.34 7 6.68 7 6 C6.01 6 5.02 6 4 6 C1.8125 4.125 1.8125 4.125 0 2 C0 1.34 0 0.68 0 0 Z " fill="#D543AF" transform="translate(133,149)"/>
<path d="M0 0 C0.66 0 1.32 0 2 0 C2.33 3.3 2.66 6.6 3 10 C2.34 10 1.68 10 1 10 C0.67 10.66 0.34 11.32 0 12 C0 8.04 0 4.08 0 0 Z " fill="#983F7D" transform="translate(111,190)"/>
<path d="M0 0 C0.66 0.33 1.32 0.66 2 1 C2.33 1.99 2.66 2.98 3 4 C4.94603274 4.59070014 4.94603274 4.59070014 7 5 C7.66 5.66 8.32 6.32 9 7 C5.39703406 7.41176754 4.21597933 7.1535853 1.1875 5 C0.465625 4.34 -0.25625 3.68 -1 3 C-0.67 2.01 -0.34 1.02 0 0 Z " fill="#C734AC" transform="translate(127,130)"/>
<path d="M0 0 C0.33 0.99 0.66 1.98 1 3 C0.319375 3.5878125 0.319375 3.5878125 -0.375 4.1875 C-2.27642919 6.30832487 -3.06204028 8.33042235 -4 11 C-4.99 10.67 -5.98 10.34 -7 10 C-6.02223933 8.51990357 -5.0427506 7.04094856 -4.0625 5.5625 C-3.51722656 4.73878906 -2.97195313 3.91507812 -2.41015625 3.06640625 C-1 1 -1 1 0 0 Z " fill="#BC1A7C" transform="translate(288,257)"/>
<path d="M0 0 C-0.57344937 2.86724686 -0.8614515 3.8614515 -3 6 C-4.32 6 -5.64 6 -7 6 C-7 4 -7 4 -5.1875 1.875 C-3 0 -3 0 0 0 Z " fill="#C738A3" transform="translate(133,185)"/>
<path d="M0 0 C0.66 0.33 1.32 0.66 2 1 C1.45912682 4.78611227 -0.11722332 6.55400767 -3 9 C-3.66 9 -4.32 9 -5 9 C-3.7508258 5.54074837 -2.32472205 2.85306797 0 0 Z " fill="#6F1243" transform="translate(436,333)"/>
<path d="M0 0 C0.66 0.33 1.32 0.66 2 1 C0.49776416 5.20626034 -2.28550034 6.73900021 -6 9 C-4.47291037 5.56404834 -2.40072955 2.88087546 0 0 Z " fill="#C71771" transform="translate(320,216)"/>
<path d="M0 0 C0.66 0.33 1.32 0.66 2 1 C4.37123246 1.23029956 6.74741943 1.41119942 9.125 1.5625 C10.40632812 1.64628906 11.68765625 1.73007812 13.0078125 1.81640625 C14.48894531 1.90728516 14.48894531 1.90728516 16 2 C16 2.33 16 2.66 16 3 C10.39 3 4.78 3 -1 3 C-0.67 2.01 -0.34 1.02 0 0 Z " fill="#A52A72" transform="translate(243,316)"/>
<path d="M0 0 C1.32 0.66 2.64 1.32 4 2 C2.02 4.31 0.04 6.62 -2 9 C-2 5.61976483 -1.12544378 3.16531063 0 0 Z " fill="#C41477" transform="translate(308,281)"/>
<path d="M0 0 C1.32 0.66 2.64 1.32 4 2 C3.34 3.32 2.68 4.64 2 6 C1.34 6 0.68 6 0 6 C-1.125 2.25 -1.125 2.25 0 0 Z " fill="#71093B" transform="translate(467,361)"/>
<path d="M0 0 C5 2 5 2 6 4 C5.67 4.66 5.34 5.32 5 6 C5.66 6 6.32 6 7 6 C6.67 7.32 6.34 8.64 6 10 C4.02 6.7 2.04 3.4 0 0 Z " fill="#721240" transform="translate(176,322)"/>
<path d="M0 0 C2.64 0 5.28 0 8 0 C7.34 0.66 6.68 1.32 6 2 C4.68 2 3.36 2 2 2 C2.33 3.32 2.66 4.64 3 6 C1.5 4.6875 1.5 4.6875 0 3 C0 2.01 0 1.02 0 0 Z " fill="#67153D" transform="translate(141,267)"/>
<path d="M0 0 C0.99 0.33 1.98 0.66 3 1 C1.02 3.31 -0.96 5.62 -3 8 C-3 5.35220307 -2.82804069 3.48412207 -2 1 C-1.34 0.67 -0.68 0.34 0 0 Z " fill="#C41772" transform="translate(341,241)"/>
<path d="M0 0 C0 3 0 3 -2.5 5.6875 C-3.325 6.450625 -4.15 7.21375 -5 8 C-5 6.68 -5 5.36 -5 4 C-4.34 4 -3.68 4 -3 4 C-3 3.01 -3 2.02 -3 1 C-2.01 0.67 -1.02 0.34 0 0 Z " fill="#C01678" transform="translate(350,231)"/>
<path d="M0 0 C0 3 0 3 -2.5 5.6875 C-3.325 6.450625 -4.15 7.21375 -5 8 C-5.3125 5.6875 -5.3125 5.6875 -5 3 C-2.5 1.1875 -2.5 1.1875 0 0 Z " fill="#BE1877" transform="translate(368,208)"/>
<path d="M0 0 C0.66 0.33 1.32 0.66 2 1 C1.8125 2.875 1.8125 2.875 1 5 C-1.5625 6.25 -1.5625 6.25 -4 7 C-2.79618552 4.50638429 -1.54571278 2.31856917 0 0 Z " fill="#C51877" transform="translate(325,209)"/>
<path d="M0 0 C3.68754757 0.49831724 5.60490662 1.10067643 8 4 C4 4 4 4 1.75 2 C1.1725 1.34 0.595 0.68 0 0 Z " fill="#AE4596" transform="translate(133,137)"/>
<path d="M0 0 C-0.33 0.99 -0.66 1.98 -1 3 C-3.31 3.33 -5.62 3.66 -8 4 C-5.29881977 1.17603885 -4.05589853 0 0 0 Z " fill="#741043" transform="translate(446,329)"/>
<path d="M0 0 C0.33 0.99 0.66 1.98 1 3 C-0.65 4.65 -2.3 6.3 -4 8 C-4 4.09161134 -2.49432124 2.88405893 0 0 Z " fill="#C41B79" transform="translate(266,286)"/>
<path d="M0 0 C0.33 1.32 0.66 2.64 1 4 C-1.475 5.485 -1.475 5.485 -4 7 C-3.43628586 3.73045798 -2.50037734 2.17424117 0 0 Z " fill="#C638A9" transform="translate(164,161)"/>
<path d="M0 0 C1.32 0.66 2.64 1.32 4 2 C4 2.99 4 3.98 4 5 C2.35 5.66 0.7 6.32 -1 7 C-0.649375 6.21625 -0.29875 5.4325 0.0625 4.625 C0.371875 3.75875 0.68125 2.8925 1 2 C0.67 1.34 0.34 0.68 0 0 Z " fill="#C546A1" transform="translate(145,158)"/>
</svg>
