<?xml version="1.0" encoding="UTF-8"?>
<svg version="1.1" xmlns="http://www.w3.org/2000/svg" width="500" height="500">
<path d="M0 0 C12.54530922 -0.04548064 25.09056222 -0.08204691 37.63593578 -0.10362434 C43.46345816 -0.11398893 49.29092041 -0.12801147 55.1184082 -0.15087891 C60.75946441 -0.1728721 66.40046339 -0.18462342 72.04155922 -0.18975449 C74.17613944 -0.19340337 76.31071711 -0.2005259 78.44527245 -0.21146011 C115.59193469 -0.39389007 153.74806557 3.05804233 181.95703125 29.859375 C198.53953024 47.37768093 201 69.86724792 201 93 C232.35 93 263.7 93 296 93 C289.25576923 101.99230769 289.25576923 101.99230769 286.67578125 105.140625 C286.12212891 105.81867188 285.56847656 106.49671875 284.99804688 107.1953125 C284.44181641 107.87335938 283.88558594 108.55140625 283.3125 109.25 C282.18289234 110.62963433 281.05396367 112.00982495 279.92578125 113.390625 C279.18968628 114.2882959 279.18968628 114.2882959 278.4387207 115.20410156 C276.93468823 116.96931101 276.93468823 116.96931101 275.88461304 119.0838623 C274 121 274 121 270.64009094 121.48101807 C269.22923668 121.49261692 267.81809738 121.48197042 266.4074707 121.45410156 C265.63650055 121.45468567 264.8655304 121.45526978 264.07119751 121.45587158 C261.52226776 121.45308429 258.97450674 121.42196331 256.42578125 121.390625 C254.65887593 121.38316487 252.89196233 121.37747086 251.12504578 121.37347412 C246.47400071 121.35819977 241.82345511 121.31890264 237.17260742 121.2746582 C232.42698931 121.23374421 227.68129051 121.2154714 222.93554688 121.1953125 C213.62347844 121.15240997 204.31178075 121.08413699 195 121 C194.47108154 122.01610352 193.94216309 123.03220703 193.3972168 124.07910156 C192.68562193 125.43306772 191.97377585 126.78690187 191.26171875 128.140625 C190.91524292 128.80787598 190.56876709 129.47512695 190.21179199 130.16259766 C179.45176737 150.54738633 159.94147861 163.68288297 138.39990234 170.67382812 C122.72801226 175.41388538 106.53781159 178.19710677 90.15234375 178.09765625 C89.25504044 178.0962413 88.35773712 178.09482635 87.4332428 178.09336853 C84.60129286 178.0878251 81.76942555 178.07528358 78.9375 178.0625 C77.00325636 178.05747767 75.06901147 178.05291606 73.13476562 178.04882812 C68.42312058 178.0387303 63.71165146 178.01914441 59 178 C59 168.43 59 158.86 59 149 C61.87203125 148.90203125 64.7440625 148.8040625 67.703125 148.703125 C70.55990224 148.5943579 73.41640904 148.48004179 76.27294922 148.36523438 C78.22162776 148.28980578 80.17053095 148.2199265 82.11962891 148.15625 C106.73770087 147.34284958 132.21610243 144.52171732 150.125 125.875 C160.34098568 113.94964664 163.66368403 99.6882132 162.7890625 84.28515625 C161.1890947 69.65903551 156.64540818 57.75727636 145.56640625 47.81640625 C129.5218776 35.20488224 108.78357673 31.92283864 88.89038086 31.79467773 C87.92346313 31.78477814 86.95654541 31.77487854 85.96032715 31.76467896 C82.79519009 31.7333363 79.63003808 31.70841533 76.46484375 31.68359375 C74.25809867 31.66300065 72.05135732 31.64200359 69.84461975 31.62062073 C64.05957073 31.56564331 58.27448755 31.51612753 52.48937988 31.46777344 C46.57687368 31.41737987 40.66441657 31.36178735 34.75195312 31.30664062 C23.16800928 31.19935698 11.58402333 31.09832777 0 31 C0 20.77 0 10.54 0 0 Z " fill="#2B45B9" transform="translate(38,69)"/>
<path d="M0 0 C2.2530001 1.4562021 3.28134094 2.76376253 4.73542786 5.0090332 C5.24149063 5.78005371 5.74755341 6.55107422 6.26895142 7.34545898 C6.81049362 8.19092285 7.35203583 9.03638672 7.9099884 9.9074707 C8.49346542 10.80062988 9.07694244 11.69378906 9.67810059 12.61401367 C11.55987719 15.49781447 13.42888815 18.38961431 15.29670715 21.2824707 C16.4800189 23.10599318 17.6642566 24.92891513 18.84944153 26.7512207 C19.74305641 28.1351149 19.74305641 28.1351149 20.65472412 29.54696655 C21.9327955 31.49133604 23.24023955 33.41664687 24.5730896 35.32388306 C28.31143614 40.75226168 31.32236471 45.84749659 33.8162117 51.92961311 C38.23063721 62.51789124 43.54206095 73.55374013 53.98420715 79.2824707 C72.08399114 85.34269639 93.82803906 82.99812821 112.64974529 82.17678046 C121.64256284 81.79242134 130.63893228 81.68486861 139.63837337 81.55867767 C153.76642415 81.35351965 167.85630555 80.78986553 181.98420715 80.2824707 C181.98420715 58.5024707 181.98420715 36.7224707 181.98420715 14.2824707 C192.54420715 14.2824707 203.10420715 14.2824707 213.98420715 14.2824707 C213.98420715 70.7124707 213.98420715 127.1424707 213.98420715 185.2824707 C210.2963192 186.20444269 207.49067479 186.41143278 203.7224884 186.4152832 C202.52172668 186.41657227 201.32096497 186.41786133 200.08381653 186.41918945 C198.83407043 186.41532227 197.58432434 186.41145508 196.29670715 186.4074707 C194.40468567 186.41327148 194.40468567 186.41327148 192.47444153 186.41918945 C191.277547 186.41790039 190.08065247 186.41661133 188.8474884 186.4152832 C187.74703186 186.41415527 186.64657532 186.41302734 185.51277161 186.41186523 C182.98420715 186.2824707 182.98420715 186.2824707 181.98420715 185.2824707 C181.88925982 182.90946201 181.85861396 180.56568368 181.87068176 178.19238281 C181.87053574 177.45096542 181.87038971 176.70954803 181.87023926 175.94566345 C181.8709385 173.48368449 181.87873141 171.02178027 181.8865509 168.55981445 C181.88841504 166.85730531 181.88983896 165.15479564 181.89083862 163.45228577 C181.89466413 158.96253997 181.90449469 154.47282632 181.9155426 149.98309326 C181.92575602 145.40515579 181.93033609 140.82721315 181.93537903 136.24926758 C181.94611693 127.26032113 181.96319374 118.27139859 181.98420715 109.2824707 C181.22757184 109.3221078 180.47093653 109.3617449 179.69137287 109.40258312 C161.14300373 110.3588964 142.5996285 111.06675967 124.03174305 111.5103941 C115.04982376 111.73077534 106.08464944 112.03107282 97.11335754 112.52636719 C37.55643209 115.74861261 37.55643209 115.74861261 24.03236389 105.30786133 C14.16818993 96.01754285 8.41766108 83.83627093 3.264328 71.5017395 C0.3810184 64.65617959 -3.55826564 58.93500336 -7.87516785 52.9152832 C-9.07055481 51.11536268 -10.25720741 49.30960144 -11.4337616 47.49731445 C-11.98338562 46.65797363 -12.53300964 45.81863281 -13.09928894 44.95385742 C-13.64923523 44.1135498 -14.19918152 43.27324219 -14.76579285 42.4074707 C-22.05860167 31.27655275 -29.35806684 20.16699029 -37.01579285 9.2824707 C-36.68579285 8.6224707 -36.35579285 7.9624707 -36.01579285 7.2824707 C-33.13416316 6.75991102 -30.29274963 6.3388139 -27.39079285 5.9699707 C-19.47603024 4.8782019 -12.44820524 2.98650059 -5.0196991 0.07543945 C-2.01579285 -0.7175293 -2.01579285 -0.7175293 0 0 Z " fill="#F6D004" transform="translate(177.0157928466797,259.717529296875)"/>
<path d="M0 0 C12.21 0 24.42 0 37 0 C37 81.51 37 163.02 37 247 C24.79 247 12.58 247 0 247 C0 165.49 0 83.98 0 0 Z " fill="#2A44B9" transform="translate(38,122)"/>
<path d="M0 0 C2.61376953 -0.34057617 2.61376953 -0.34057617 5.8828125 -0.29296875 C7.04941406 -0.28330078 8.21601563 -0.27363281 9.41796875 -0.26367188 C10.64128906 -0.23853516 11.86460937 -0.21339844 13.125 -0.1875 C14.97158203 -0.16719727 14.97158203 -0.16719727 16.85546875 -0.14648438 C19.90407843 -0.11103543 22.951825 -0.06162079 26 0 C27.732979 22.98196764 27.732979 22.98196764 24.125 28.875 C21.57483166 31.80769359 18.87032501 34.38270639 16 37 C14.37375036 39.0076502 12.79117534 41.05132554 11.25 43.125 C10.42238424 44.21361901 9.59288931 45.30081143 8.76171875 46.38671875 C8.3239209 46.96083496 7.88612305 47.53495117 7.43505859 48.12646484 C4.6633938 51.74500102 1.86186021 55.34037506 -0.9375 58.9375 C-1.53788086 59.70916504 -2.13826172 60.48083008 -2.75683594 61.27587891 C-6.76186669 66.41946718 -10.7834343 71.54974488 -14.81616211 76.67163086 C-18.56247396 81.43352152 -22.28293842 86.21525578 -26 91 C-32.40734761 99.24682324 -38.85244648 107.46318111 -45.31347656 115.66796875 C-46.64690443 117.36164915 -47.979842 119.05571378 -49.3125 120.75 C-49.97971069 121.59800171 -49.97971069 121.59800171 -50.66040039 122.46313477 C-53.2812607 125.79856479 -55.88969055 129.14327968 -58.48828125 132.49609375 C-59.0918042 133.27436523 -59.69532715 134.05263672 -60.31713867 134.85449219 C-61.47617945 136.35021044 -62.63400541 137.84687133 -63.7902832 139.34472656 C-64.90945835 140.78897264 -66.04819524 142.21823657 -67.2043457 143.63305664 C-69.0998559 146.02398702 -69.0998559 146.02398702 -70.69213867 148.97436523 C-73.1937913 152.92442673 -75.40117751 156.3195623 -80.14196777 157.56082153 C-86.44064477 158.37491083 -92.73951718 158.00146806 -99.0625 157.6875 C-100.99660556 157.63225836 -102.93086274 157.58207955 -104.86523438 157.53710938 C-109.58059598 157.41652146 -114.28861764 157.22713495 -119 157 C-117.5426654 153.1638451 -116.00466074 150.55015061 -113.3125 147.4375 C-108.88429938 142.1607392 -104.73681584 136.71375564 -100.625 131.1875 C-95.35960321 124.12198995 -90.01616468 117.13492392 -84.546875 110.2265625 C-80.72262743 105.39516577 -76.98227453 100.4991872 -73.23388672 95.60888672 C-71.15907413 92.90350188 -69.07927147 90.20195834 -67 87.5 C-66.16664307 86.41668482 -65.33330973 85.33335149 -64.5 84.25 C-19.5 25.75 -19.5 25.75 -18.24804688 24.12255859 C-17.42109791 23.04746023 -16.59427342 21.9722661 -15.76757812 20.89697266 C-13.58761529 18.06181562 -11.40503033 15.22872659 -9.21875 12.3984375 C-8.76371094 11.80869141 -8.30867188 11.21894531 -7.83984375 10.61132812 C-6.96824454 9.48180671 -6.09588879 8.35286854 -5.22265625 7.22460938 C-3.39768643 4.85813212 -1.65882404 2.48823606 0 0 Z " fill="#C22217" transform="translate(361,162)"/>
<path d="M0 0 C2.2530001 1.4562021 3.28134094 2.76376253 4.73542786 5.0090332 C5.24227615 5.78122696 5.74912445 6.55342072 6.27133179 7.34901428 C6.81208847 8.1933049 7.35284515 9.03759552 7.9099884 9.9074707 C8.48639572 10.79007065 9.06280304 11.67267059 9.65667725 12.58201599 C11.54515297 15.47675324 13.42088486 18.37952133 15.29670715 21.2824707 C17.90830496 25.29699058 20.52613243 29.30743095 23.1443634 33.31762695 C23.80169464 34.32624283 24.45902588 35.3348587 25.13627625 36.3740387 C29.35016328 42.82689196 33.62869581 49.23033418 37.9803009 55.59106445 C38.51758316 56.37736237 39.05486542 57.16366028 39.60842896 57.9737854 C41.64356518 60.94839176 43.68080413 63.92135291 45.73362732 66.88378906 C47.12078145 68.88582999 48.4984314 70.89412267 49.87483215 72.90356445 C50.28072067 73.4818248 50.68660919 74.06008514 51.10479736 74.65586853 C53.26984586 77.83348772 54.54029235 80.4463515 54.98420715 84.2824707 C55.64420715 84.2824707 56.30420715 84.2824707 56.98420715 84.2824707 C58.0271759 85.6809082 58.0271759 85.6809082 59.17170715 87.6574707 C61.73790572 91.94210581 64.5482957 96.00824544 67.4334259 100.08325195 C70.98420715 105.11874274 70.98420715 105.11874274 70.98420715 109.2824707 C57.96148689 111.97247906 42.62497629 114.67738605 29.98420715 109.2824707 C18.08328677 100.87940907 11.29692708 84.97149626 4.5037384 72.52954102 C-0.71920819 63.07872321 -6.82109462 54.20171215 -12.8535614 45.25598145 C-15.87800611 40.75068829 -18.84142512 36.20574949 -21.81266785 31.6652832 C-26.76574358 24.12215197 -31.82329189 16.66297483 -37.01579285 9.2824707 C-36.68579285 8.6224707 -36.35579285 7.9624707 -36.01579285 7.2824707 C-33.13416316 6.75991102 -30.29274963 6.3388139 -27.39079285 5.9699707 C-19.47603024 4.8782019 -12.44820524 2.98650059 -5.0196991 0.07543945 C-2.01579285 -0.7175293 -2.01579285 -0.7175293 0 0 Z " fill="#2B45BB" transform="translate(177.0157928466797,259.717529296875)"/>
<path d="M0 0 C16.17100342 -0.02358505 32.34200108 -0.04110273 48.51301765 -0.05181217 C56.02512316 -0.05692166 63.53721785 -0.06385942 71.04931641 -0.07543945 C77.61325333 -0.08555287 84.1771824 -0.09189204 90.74112689 -0.09408849 C94.2017679 -0.09536803 97.66238651 -0.09827106 101.12302017 -0.10573006 C120.1143253 -0.1419946 139.02194569 0.28267621 158 1 C158 9.91 158 18.82 158 28 C154.09317599 28.7813648 151.10485006 29.12383579 147.19767761 29.12025452 C146.03806519 29.12162918 144.87845276 29.12300385 143.68370056 29.12442017 C142.42062576 29.12082489 141.15755096 29.11722961 139.85620117 29.11352539 C138.50572715 29.11324316 137.15525298 29.11340196 135.80477905 29.1139679 C132.14608742 29.11425447 128.48742866 29.10838035 124.82874465 29.10139394 C121.00239336 29.09513711 117.17604129 29.09455476 113.34968567 29.09336853 C106.10727961 29.09026209 98.86488868 29.08205795 91.62248927 29.07201904 C83.37585759 29.06083659 75.12922517 29.05534208 66.88258779 29.05032361 C49.92171645 29.03987477 32.96085983 29.02228861 16 29 C15.28181966 27.27194214 14.56363932 25.54388428 13.84545898 23.81582642 C12.56786685 21.07189017 10.8279817 18.77768807 9 16.375 C2 7.12121212 2 7.12121212 2 4 C1.34 4 0.68 4 0 4 C0 2.68 0 1.36 0 0 Z " fill="#C12418" transform="translate(232,340)"/>
<path d="M0 0 C5.97842675 3.24914497 11.47131676 7.03981643 17 11 C17 7.7 17 4.4 17 1 C17.66 0.67 18.32 0.34 19 0 C28.69193664 6.7756689 38.30864748 13.63820209 47.79956055 20.69335938 C51.8872811 23.72733587 55.99768306 26.71696891 60.16796875 29.63671875 C61.41525757 30.51565796 61.41525757 30.51565796 62.68774414 31.41235352 C64.27824706 32.5299913 65.87486526 33.63899106 67.47827148 34.73803711 C68.18927002 35.23956299 68.90026855 35.74108887 69.6328125 36.2578125 C70.26074707 36.6923877 70.88868164 37.12696289 71.53564453 37.57470703 C73.30742167 39.29922102 73.61862847 40.59150698 74 43 C73.19820313 43.57105469 72.39640625 44.14210937 71.5703125 44.73046875 C57.33397299 54.87889332 43.15708077 65.10472302 29.10473633 75.50683594 C28.3495874 76.06532227 27.59443848 76.62380859 26.81640625 77.19921875 C26.15068604 77.69252686 25.48496582 78.18583496 24.79907227 78.6940918 C20.24471864 82 20.24471864 82 17 82 C16.67 78.7 16.34 75.4 16 72 C14.53626953 73.0828125 14.53626953 73.0828125 13.04296875 74.1875 C11.75808401 75.12537208 10.47291278 76.06285176 9.1875 77 C8.54490234 77.47695312 7.90230469 77.95390625 7.24023438 78.4453125 C6.61826172 78.89648438 5.99628906 79.34765625 5.35546875 79.8125 C4.49924927 80.44091797 4.49924927 80.44091797 3.62573242 81.08203125 C2 82 2 82 -1 82 C-1.33 78.37 -1.66 74.74 -2 71 C-6.95 74.63 -11.9 78.26 -17 82 C-17.66 81.67 -18.32 81.34 -19 81 C-19 54.6 -19 28.2 -19 1 C-14.66173489 2.08456628 -11.8091674 4.00850405 -8.25 6.5625 C-7.64800781 6.98724609 -7.04601562 7.41199219 -6.42578125 7.84960938 C-4.94670286 8.89435522 -3.47282741 9.94646016 -2 11 C-1.90912109 9.93458984 -1.90912109 9.93458984 -1.81640625 8.84765625 C-1.73261719 7.92855469 -1.64882812 7.00945312 -1.5625 6.0625 C-1.48128906 5.14597656 -1.40007812 4.22945313 -1.31640625 3.28515625 C-1 1 -1 1 0 0 Z M1 3 C0.12587222 6.92983944 -0.06964558 10.09432164 1 14 C4.97043971 18.80748547 11.14221045 23.04740348 17 25 C18.04282977 21.00634821 18.23765791 17.96635251 17 14 C12.82791798 9.41378777 7.28064144 6.15617529 2 3 C1.67 3 1.34 3 1 3 Z M19 3 C18.05543774 6.9431726 17.89822095 10.07366013 19 14 C22.52163465 17.5437833 26.55204429 19.98504526 30.79101562 22.59326172 C34.86628291 25.18849714 38.72794319 28.08473697 42.625 30.9375 C44.13752426 32.03063533 45.65051718 33.12312261 47.1640625 34.21484375 C48.44492887 35.14016315 49.72365369 36.06845572 51 37 C51.71849121 37.49056885 52.43698242 37.9811377 53.17724609 38.48657227 C55 40 55 40 56 43 C55.11973145 43.42079834 55.11973145 43.42079834 54.22167969 43.85009766 C52.164756 44.91472519 50.34308919 46.06492258 48.453125 47.3984375 C47.78015381 47.87168457 47.10718262 48.34493164 46.41381836 48.83251953 C43.3893714 50.98850011 40.3754931 53.15907638 37.36181641 55.33007812 C35.04376147 56.96905846 32.69190599 58.54321997 30.32421875 60.109375 C28.86147618 61.11385126 27.39921787 62.11903317 25.9375 63.125 C25.24108398 63.56634277 24.54466797 64.00768555 23.82714844 64.46240234 C21.82845734 65.87243784 20.40236158 66.99056274 19 69 C18.44007927 72.41352363 18.5785081 75.57659127 19 79 C24.63571529 75.94700987 29.6909764 72.40696147 34.8125 68.5625 C36.49160817 67.31302318 38.17131104 66.06434519 39.8515625 64.81640625 C40.70266602 64.1836377 41.55376953 63.55086914 42.43066406 62.89892578 C47.20833477 59.36788029 52.03486564 55.90461591 56.8605957 52.43969727 C58.9109149 50.96504922 60.95547179 49.48266193 63 48 C63.75748535 47.45988281 64.5149707 46.91976562 65.29541016 46.36328125 C66.02937012 45.83089844 66.76333008 45.29851562 67.51953125 44.75 C68.18702393 44.27046875 68.8545166 43.7909375 69.54223633 43.296875 C70.26382935 42.65492188 70.26382935 42.65492188 71 42 C71 41.34 71 40.68 71 40 C68.59769618 38.16674382 66.18371074 36.44769611 63.6875 34.75 C62.11985784 33.66454318 60.55349839 32.57723201 58.98828125 31.48828125 C58.1679541 30.91803223 57.34762695 30.3477832 56.50244141 29.76025391 C52.41261397 26.88340944 48.39314715 23.91326717 44.375 20.9375 C43.58778564 20.35564941 42.80057129 19.77379883 41.98950195 19.17431641 C39.65876979 17.45075381 37.32921148 15.72561692 35 14 C32.12727615 11.871897 29.25218218 9.74707036 26.375 7.625 C25.74126465 7.15441162 25.1075293 6.68382324 24.45458984 6.19897461 C21.9661452 3.98499462 21.9661452 3.98499462 19 3 Z M19 16 C18.36612069 19.83144826 18.18377895 23.18593003 19 27 C21.86011183 30.3827427 25.30604416 32.59840548 29 35 C30.54964653 36.15604621 32.0922731 37.32161319 33.625 38.5 C34.74873979 39.33503194 35.87321838 40.16907724 37 41 C34.72382072 43.52334016 32.43244368 45.43656338 29.546875 47.19140625 C22.25475966 51.30757757 22.25475966 51.30757757 18.0859375 58.09765625 C18.12158895 60.86064336 18.35713445 63.31629142 19 66 C29.50821598 59.71868438 39.21001857 52.32742729 49 45 C49.74580322 44.48211914 50.49160645 43.96423828 51.26000977 43.43066406 C51.83420654 42.95854492 52.40840332 42.48642578 53 42 C53 41.34 53 40.68 53 40 C50.53475623 38.12665882 48.05812009 36.36386008 45.5 34.625 C38.51024504 29.79576879 31.66824735 24.81462467 24.91601562 19.65869141 C22.2198522 17.15583802 22.2198522 17.15583802 19 16 Z M2.45605469 66.39941406 C0.20660784 68.87214605 0.00293017 70.91115942 0.0625 74.1875 C0.40433174 76.86942798 0.40433174 76.86942798 1 79 C2.73152958 77.92044741 4.46011684 76.83617488 6.1875 75.75 C7.15042969 75.14671875 8.11335938 74.5434375 9.10546875 73.921875 C10.06066406 73.28765625 11.01585937 72.6534375 12 72 C12.9384375 71.38125 13.876875 70.7625 14.84375 70.125 C17.25025886 68.16489675 17.25025886 68.16489675 17.48828125 65.203125 C17.43027344 64.22859375 17.37226563 63.2540625 17.3125 62.25 C17.26738281 61.26515625 17.22226563 60.2803125 17.17578125 59.265625 C17.11777344 58.51796875 17.05976563 57.7703125 17 57 C12.66357721 57 5.71266336 63.61761996 2.45605469 66.39941406 Z " fill="#C32217" transform="translate(112,120)"/>
<path d="M0 0 C31.35 0 62.7 0 95 0 C88.25576923 8.99230769 88.25576923 8.99230769 85.67578125 12.140625 C84.84530273 13.15769531 84.84530273 13.15769531 83.99804688 14.1953125 C83.16370117 15.21238281 83.16370117 15.21238281 82.3125 16.25 C81.18289234 17.62963433 80.05396367 19.00982495 78.92578125 20.390625 C78.43505127 20.98907227 77.94432129 21.58751953 77.4387207 22.20410156 C75.936229 23.97159096 75.936229 23.97159096 74.8664093 26.08287048 C73 28 73 28 69.76071167 28.48774719 C68.40678412 28.50238763 67.0525094 28.49480531 65.69873047 28.4699707 C64.58857574 28.4732563 64.58857574 28.4732563 63.45599365 28.47660828 C61.00927065 28.47892024 58.56375006 28.4526643 56.1171875 28.42578125 C54.41993594 28.42085889 52.72267895 28.41755901 51.02542114 28.41581726 C47.4694077 28.40817505 43.91379645 28.3876051 40.35791016 28.35668945 C35.78997152 28.31705419 31.22229441 28.29907179 26.65420341 28.28938007 C22.3084957 28.27942772 17.96285252 28.25952207 13.6171875 28.23828125 C12.78286068 28.2348855 11.94853386 28.23148975 11.08892441 28.2279911 C8.74003069 28.2164671 6.39130665 28.19795584 4.04248047 28.17700195 C3.34013275 28.17431305 2.63778503 28.17162415 1.91415405 28.16885376 C-2.88509642 28.11490358 -2.88509642 28.11490358 -4 27 C-4.57972282 18.73894977 -3.7615094 7.5230188 0 0 Z " fill="#C32117" transform="translate(239,162)"/>
<path d="M0 0 C5.09348409 3.06267686 9.67762132 7.84536396 11.5625 13.5 C12.27145531 20.81236761 12.3250393 27.24858188 8.2578125 33.55859375 C3.64002551 38.84670466 -1.94664461 41.99782767 -8.8828125 42.7734375 C-16.84279691 43.07512787 -22.87723091 41.2838204 -29.06640625 36.1484375 C-33.24391526 31.68411444 -35.19937436 26.02204437 -35.60546875 20.015625 C-35.32534196 13.33408233 -33.07426077 8.3169212 -28.4375 3.5 C-20.59876818 -2.65592151 -9.19919617 -3.98334125 0 0 Z " fill="#2B45B9" transform="translate(464.4375,329.5)"/>
<path d="M0 0 C5.97842675 3.24914497 11.47131676 7.03981643 17 11 C17 7.7 17 4.4 17 1 C17.66 0.67 18.32 0.34 19 0 C28.69193664 6.7756689 38.30864748 13.63820209 47.79956055 20.69335938 C51.8872811 23.72733587 55.99768306 26.71696891 60.16796875 29.63671875 C61.41525757 30.51565796 61.41525757 30.51565796 62.68774414 31.41235352 C64.27824706 32.5299913 65.87486526 33.63899106 67.47827148 34.73803711 C68.18927002 35.23956299 68.90026855 35.74108887 69.6328125 36.2578125 C70.26074707 36.6923877 70.88868164 37.12696289 71.53564453 37.57470703 C73.30742167 39.29922102 73.61862847 40.59150698 74 43 C73.19820313 43.57105469 72.39640625 44.14210937 71.5703125 44.73046875 C57.33397299 54.87889332 43.15708077 65.10472302 29.10473633 75.50683594 C28.3495874 76.06532227 27.59443848 76.62380859 26.81640625 77.19921875 C26.15068604 77.69252686 25.48496582 78.18583496 24.79907227 78.6940918 C20.24471864 82 20.24471864 82 17 82 C16.505 77.05 16.505 77.05 16 72 C15.02417969 72.721875 14.04835938 73.44375 13.04296875 74.1875 C11.75808401 75.12537208 10.47291278 76.06285176 9.1875 77 C8.54490234 77.47695312 7.90230469 77.95390625 7.24023438 78.4453125 C6.61826172 78.89648438 5.99628906 79.34765625 5.35546875 79.8125 C4.78465576 80.23144531 4.21384277 80.65039062 3.62573242 81.08203125 C2 82 2 82 -1 82 C-1.33 78.37 -1.66 74.74 -2 71 C-3.32 71.99 -4.64 72.98 -6 74 C-6.66 73.67 -7.32 73.34 -8 73 C-7.34 72.01 -6.68 71.02 -6 70 C-5.34 70 -4.68 70 -4 70 C-4 69.34 -4 68.68 -4 68 C-1.03 67.505 -1.03 67.505 2 67 C2 70.63 2 74.26 2 78 C11.31733795 73.0094522 11.31733795 73.0094522 17.1171875 64.76953125 C17.29851671 61.79210566 17.20352278 58.97143254 17 56 C17.33 55.01 17.66 54.02 18 53 C19.32 53.33 20.64 53.66 22 54 C21.01 54.495 21.01 54.495 20 55 C20 58.3 20 61.6 20 65 C21.13695312 64.17757812 22.27390625 63.35515625 23.4453125 62.5078125 C24.186604 61.97196533 24.92789551 61.43611816 25.69165039 60.8840332 C27.321369 59.70593321 28.95076069 58.52738085 30.57983398 57.34838867 C34.46541237 54.53940353 38.35636423 51.7398824 42.27734375 48.98046875 C42.91978027 48.52720215 43.5622168 48.07393555 44.22412109 47.60693359 C45.42894425 46.75859729 46.63622358 45.91373619 47.84619141 45.07275391 C50.91478623 42.98842842 50.91478623 42.98842842 53 40 C52.29746094 39.7628125 51.59492188 39.525625 50.87109375 39.28125 C47.47903443 37.76751469 44.96755352 35.81525072 42.0625 33.5 C36.62209331 29.21191268 31.06617656 25.13020146 25.40649414 21.13671875 C21.08281288 18.08281288 21.08281288 18.08281288 20 17 C19.10235611 20.60591991 18.94596735 23.4133611 20 27 C23.4803676 30.47536708 27.29332686 33.09064132 31.36865234 35.81103516 C33.86316725 37.62909675 35.8888435 39.75366587 38 42 C36.04594482 43.50587739 34.08718716 45.00478644 32.125 46.5 C31.56941406 46.92925781 31.01382813 47.35851562 30.44140625 47.80078125 C26.2265625 51 26.2265625 51 24 51 C24 50.01 24 49.02 24 48 C24.99 48 25.98 48 27 48 C27.33 46.68 27.66 45.36 28 44 C29.65 44 31.3 44 33 44 C33.33 42.35 33.66 40.7 34 39 C33.236875 39.061875 32.47375 39.12375 31.6875 39.1875 C29 39 29 39 27.5 37.8125 C27.005 37.214375 26.51 36.61625 26 36 C25.195625 35.195625 24.39125 34.39125 23.5625 33.5625 C22.716875 32.716875 21.87125 31.87125 21 31 C20.29230469 30.42636719 19.58460938 29.85273438 18.85546875 29.26171875 C16.32237979 26.17401662 16.59261814 24.18454647 16.75 20.25 C16.78609375 19.07953125 16.8221875 17.9090625 16.859375 16.703125 C16.90578125 15.81109375 16.9521875 14.9190625 17 14 C16.45859375 13.75507813 15.9171875 13.51015625 15.359375 13.2578125 C12.44938857 11.70646212 9.9025804 9.83285696 7.25 7.875 C6.26515625 7.15054688 5.2803125 6.42609375 4.265625 5.6796875 C3.14414063 4.84824219 3.14414063 4.84824219 2 4 C1.67 7.3 1.34 10.6 1 14 C-0.32 13.67 -1.64 13.34 -3 13 C-2.67 12.34 -2.34 11.68 -2 11 C-1.68954474 8.40856095 -1.49026088 5.81628268 -1.28125 3.21484375 C-1 1 -1 1 0 0 Z M19 3 C18.05543774 6.9431726 17.89822095 10.07366013 19 14 C22.52163465 17.5437833 26.55204429 19.98504526 30.79101562 22.59326172 C34.86628291 25.18849714 38.72794319 28.08473697 42.625 30.9375 C44.13752426 32.03063533 45.65051718 33.12312261 47.1640625 34.21484375 C48.44492887 35.14016315 49.72365369 36.06845572 51 37 C51.71849121 37.49056885 52.43698242 37.9811377 53.17724609 38.48657227 C55 40 55 40 56 43 C55.11973145 43.42079834 55.11973145 43.42079834 54.22167969 43.85009766 C52.164756 44.91472519 50.34308919 46.06492258 48.453125 47.3984375 C47.78015381 47.87168457 47.10718262 48.34493164 46.41381836 48.83251953 C43.3893714 50.98850011 40.3754931 53.15907638 37.36181641 55.33007812 C35.04376147 56.96905846 32.69190599 58.54321997 30.32421875 60.109375 C28.86147618 61.11385126 27.39921787 62.11903317 25.9375 63.125 C25.24108398 63.56634277 24.54466797 64.00768555 23.82714844 64.46240234 C21.82845734 65.87243784 20.40236158 66.99056274 19 69 C18.44007927 72.41352363 18.5785081 75.57659127 19 79 C24.63571529 75.94700987 29.6909764 72.40696147 34.8125 68.5625 C36.49160817 67.31302318 38.17131104 66.06434519 39.8515625 64.81640625 C40.70266602 64.1836377 41.55376953 63.55086914 42.43066406 62.89892578 C47.20833477 59.36788029 52.03486564 55.90461591 56.8605957 52.43969727 C58.9109149 50.96504922 60.95547179 49.48266193 63 48 C63.75748535 47.45988281 64.5149707 46.91976562 65.29541016 46.36328125 C66.02937012 45.83089844 66.76333008 45.29851562 67.51953125 44.75 C68.18702393 44.27046875 68.8545166 43.7909375 69.54223633 43.296875 C70.26382935 42.65492188 70.26382935 42.65492188 71 42 C71 41.34 71 40.68 71 40 C68.59769618 38.16674382 66.18371074 36.44769611 63.6875 34.75 C62.11985784 33.66454318 60.55349839 32.57723201 58.98828125 31.48828125 C58.1679541 30.91803223 57.34762695 30.3477832 56.50244141 29.76025391 C52.41261397 26.88340944 48.39314715 23.91326717 44.375 20.9375 C43.58778564 20.35564941 42.80057129 19.77379883 41.98950195 19.17431641 C39.65876979 17.45075381 37.32921148 15.72561692 35 14 C32.12727615 11.871897 29.25218218 9.74707036 26.375 7.625 C25.74126465 7.15441162 25.1075293 6.68382324 24.45458984 6.19897461 C21.9661452 3.98499462 21.9661452 3.98499462 19 3 Z " fill="#A5322F" transform="translate(112,120)"/>
<path d="M0 0 C4.82380802 -0.0246519 9.64757967 -0.04283693 14.47143555 -0.05493164 C16.11369464 -0.05997174 17.75594923 -0.06680378 19.39819336 -0.07543945 C21.75375479 -0.08751926 24.10925709 -0.09323139 26.46484375 -0.09765625 C27.20339096 -0.10281754 27.94193817 -0.10797882 28.7028656 -0.11329651 C30.46898088 -0.1134925 32.23497146 -0.06194719 34 0 C35.95377773 1.95377773 35.12302766 4.94063911 35.12908131 7.54149443 C35.12471205 8.96704867 35.12471205 8.96704867 35.12025452 10.42140198 C35.12110894 11.42272673 35.12196337 12.42405148 35.12284368 13.45571941 C35.12450151 16.83841727 35.11897218 20.22106642 35.11352539 23.60375977 C35.11324356 26.01766967 35.11340118 28.43157965 35.1139679 30.8454895 C35.11419621 36.05657492 35.11134487 41.26764915 35.10573006 46.47873116 C35.09761716 54.0131629 35.09500005 61.54758857 35.09374207 69.08202421 C35.09155121 81.30493037 35.08489023 93.52782988 35.07543945 105.75073242 C35.06626619 117.62703417 35.05918494 129.5033341 35.05493164 141.37963867 C35.05466892 142.11118986 35.05440619 142.84274106 35.05413551 143.59646047 C35.05283051 147.26628728 35.05156679 150.93611411 35.05032361 154.60594094 C35.03994996 185.0706322 35.02205632 215.53531482 35 246 C23.45 246 11.9 246 0 246 C0 245.67 0 245.34 0 245 C11.22 245 22.44 245 34 245 C33.67 164.81 33.34 84.62 33 2 C22.11 2 11.22 2 0 2 C0 1.34 0 0.68 0 0 Z " fill="#2A43A9" transform="translate(39,122)"/>
<path d="M0 0 C3.78630702 0.75567052 5.4041044 2.12597273 8 5 C7.01 5.495 7.01 5.495 6 6 C6 5.34 6 4.68 6 4 C4.68 4 3.36 4 2 4 C2 28.42 2 52.84 2 78 C2.66 78 3.32 78 4 78 C4.66 76.68 5.32 75.36 6 74 C7.32 74.33 8.64 74.66 10 75 C7.03 76.98 4.06 78.96 1 81 C-0.71987206 79.28012794 -0.11974788 77.09122971 -0.12442017 74.79867554 C-0.12082489 74.05421173 -0.11722961 73.30974792 -0.11352539 72.54272461 C-0.11367142 71.76229294 -0.11381744 70.98186127 -0.1139679 70.17778015 C-0.11326858 67.5859402 -0.10547536 64.99417122 -0.09765625 62.40234375 C-0.09579213 60.6101536 -0.0943682 58.81796294 -0.09336853 57.02577209 C-0.08954284 52.29929203 -0.07971212 47.57284248 -0.06866455 42.84637451 C-0.05845153 38.0271445 -0.05387115 33.20790958 -0.04882812 28.38867188 C-0.03808989 18.92576781 -0.02101286 9.46288644 0 0 Z " fill="#9D1410" transform="translate(93,121)"/>
<path d="M0 0 C0.33 0 0.66 0 1 0 C1.84023188 4.35332736 2.10770995 8.44442519 2.0625 12.875 C2.05347656 14.02742188 2.04445313 15.17984375 2.03515625 16.3671875 C2.02355469 17.23601562 2.01195312 18.10484375 2 19 C2.99 19 3.98 19 5 19 C5 18.01 5 17.02 5 16 C5.66 16 6.32 16 7 16 C7 16.66 7 17.32 7 18 C14.92 18.33 22.84 18.66 31 19 C31.33 18.34 31.66 17.68 32 17 C32 27.23 32 37.46 32 48 C31.67 48 31.34 48 31 48 C31 39.09 31 30.18 31 21 C28.84597656 21.01160156 26.69195312 21.02320313 24.47265625 21.03515625 C22.39428861 21.04294737 20.31592257 21.04902381 18.23754883 21.05493164 C16.78929927 21.05997101 15.34105483 21.06680253 13.89282227 21.07543945 C11.81525412 21.08752247 9.73775303 21.09323211 7.66015625 21.09765625 C6.40855713 21.10289307 5.15695801 21.10812988 3.86743164 21.11352539 C1 21 1 21 0 20 C-0.08669432 18.5112814 -0.10703494 17.018555 -0.09765625 15.52734375 C-0.09443359 14.62822266 -0.09121094 13.72910156 -0.08789062 12.80273438 C-0.07951172 11.85720703 -0.07113281 10.91167969 -0.0625 9.9375 C-0.05798828 8.98810547 -0.05347656 8.03871094 -0.04882812 7.06054688 C-0.0370011 4.70696935 -0.02052025 2.35351523 0 0 Z " fill="#F2A822" transform="translate(359,320)"/>
<path d="M0 0 C31.35 0 62.7 0 95 0 C93.68 1.98 92.36 3.96 91 6 C90.505 4.02 90.505 4.02 90 2 C60.3 2 30.6 2 0 2 C0 1.34 0 0.68 0 0 Z " fill="#B2251D" transform="translate(239,162)"/>
<path d="M0 0 C0.33 0 0.66 0 1 0 C1 3.96 1 7.92 1 12 C25.09 12.33 49.18 12.66 74 13 C74.33 11.68 74.66 10.36 75 9 C75.66 9 76.32 9 77 9 C76.67 10.65 76.34 12.3 76 14 C66.10810624 14.02312428 56.21621886 14.04091552 46.32430363 14.05181217 C41.7315736 14.05704082 37.138862 14.06413812 32.54614258 14.07543945 C28.11766312 14.086269 23.68920144 14.09227698 19.26070976 14.09487724 C17.56734372 14.09673137 15.87397871 14.10035175 14.18062019 14.10573006 C11.81708768 14.1129414 9.45362955 14.1139909 7.09008789 14.11352539 C6.38302704 14.11712067 5.67596619 14.12071594 4.94747925 14.12442017 C0.11405216 14.11405216 0.11405216 14.11405216 -1 13 C-1.09894455 11.5653041 -1.12970735 10.12559603 -1.125 8.6875 C-1.12757813 7.90761719 -1.13015625 7.12773437 -1.1328125 6.32421875 C-1.00499912 4.08748461 -0.61913869 2.14733021 0 0 Z " fill="#B42A25" transform="translate(236,176)"/>
<path d="M0 0 C0.33 1.32 0.66 2.64 1 4 C5.75056583 4.02478423 10.50109371 4.04289989 15.25170898 4.05493164 C16.86662451 4.05994942 18.48153552 4.06676511 20.09643555 4.07543945 C22.42237465 4.08761714 24.7482535 4.09325395 27.07421875 4.09765625 C27.79212082 4.10281754 28.51002289 4.10797882 29.24967957 4.11329651 C32.96290232 4.11370876 36.38991122 3.88944216 40 3 C39.07885742 4.97558594 39.07885742 4.97558594 37 7 C33.92001953 7.59215037 30.86429738 7.46385096 27.73828125 7.390625 C26.83248825 7.38496521 25.92669525 7.37930542 24.99345398 7.37347412 C22.09926589 7.35107616 19.2063141 7.30087392 16.3125 7.25 C14.35092933 7.2299394 12.38933927 7.21168786 10.42773438 7.1953125 C5.61801294 7.15120018 0.8092161 7.08214941 -4 7 C-2.92598892 4.08482708 -2.22189824 2.22189824 0 0 Z " fill="#A62C27" transform="translate(246,312)"/>
<path d="M0 0 C0.69759108 2.17028336 1.10954619 3.57642138 0.53125 5.8125 C-0.08718105 8.35898079 -0.09693682 10.63280192 -0.0625 13.25 C-0.05347656 14.14203125 -0.04445312 15.0340625 -0.03515625 15.953125 C-0.02355469 16.62859375 -0.01195312 17.3040625 0 18 C-0.99 18 -1.98 18 -3 18 C-3.49628906 18.97839844 -3.99257812 19.95679688 -4.50390625 20.96484375 C-8.36527646 28.45909507 -12.18882648 35.78457093 -18 42 C-18.33 42 -18.66 42 -19 42 C-19.3125 39.75 -19.3125 39.75 -19 37 C-17.38263741 35.6072711 -15.7074998 34.28062485 -14 33 C-11.79258458 29.99546234 -10.1788039 27.53641169 -9 24 C-9.66 23.67 -10.32 23.34 -11 23 C-10.34 22.67 -9.68 22.34 -9 22 C-7.98133771 20.34467377 -6.98189187 18.67739862 -6 17 C-5.34 16.34 -4.68 15.68 -4 15 C-3.76985466 13.06020352 -3.54346999 11.11973309 -3.3515625 9.17578125 C-2.80775704 5.81022966 -1.4684497 3.06459067 0 0 Z " fill="#2E429C" transform="translate(236,172)"/>
<path d="M0 0 C3.17501952 1.90092371 5.31337093 4.2200564 7.375 7.3125 C5.18088847 6.29380536 3.40325521 5.33685794 1.5625 3.75 C-1.39932693 1.80365659 -4.14140793 1.69956579 -7.625 1.3125 C-8.285 0.9825 -8.945 0.6525 -9.625 0.3125 C-12.02733015 1.04600726 -12.02733015 1.04600726 -14.625 2.1875 C-15.511875 2.55617188 -16.39875 2.92484375 -17.3125 3.3046875 C-18.76611773 3.93818982 -20.20673918 4.60336959 -21.625 5.3125 C-23.75 4.375 -23.75 4.375 -25.625 3.3125 C-25.625 2.6525 -25.625 1.9925 -25.625 1.3125 C-18.10081805 -2.98703254 -7.95476342 -3.67142927 0 0 Z " fill="#2D46B3" transform="translate(464.625,329.6875)"/>
<path d="M0 0 C2.76084757 3.63557156 5.4115939 7.34660105 8.0625 11.0625 C8.50916016 11.68705078 8.95582031 12.31160156 9.41601562 12.95507812 C15 20.77599496 15 20.77599496 15 25 C8.73 25 2.46 25 -4 25 C-4 24.67 -4 24.34 -4 24 C1.94 24 7.88 24 14 24 C14 23.34 14 22.68 14 22 C13.34 22 12.68 22 12 22 C10.64482856 20.29870251 9.36477042 18.53714076 8.125 16.75 C6.1257978 13.87662193 4.30095908 11.28522951 1.7578125 8.875 C0 7 0 7 -0.25 3.25 C-0.1675 2.1775 -0.085 1.105 0 0 Z " fill="#4E3C8B" transform="translate(233,344)"/>
<path d="M0 0 C4.60387726 1.53462575 8.02041819 4.00783144 11.8125 6.9375 C12.40998047 7.38029297 13.00746094 7.82308594 13.62304688 8.27929688 C15.14257869 9.4445607 16.5790527 10.7163624 18 12 C18 12.99 18 13.98 18 15 C15.6640625 17.04296875 15.6640625 17.04296875 12.625 19.1875 C11.62726563 19.90292969 10.62953125 20.61835938 9.6015625 21.35546875 C7 23 7 23 5 23 C5 22.01 5 21.02 5 20 C5.99 20 6.98 20 8 20 C8.33 18.68 8.66 17.36 9 16 C10.65 16 12.3 16 14 16 C14.33 14.35 14.66 12.7 15 11 C14.236875 11.061875 13.47375 11.12375 12.6875 11.1875 C10 11 10 11 8.5 9.8125 C8.005 9.214375 7.51 8.61625 7 8 C3.82167141 4.57125756 3.82167141 4.57125756 0 2 C0 1.34 0 0.68 0 0 Z " fill="#AF2B24" transform="translate(131,148)"/>
<path d="M0 0 C-15.37350299 6.86901198 -15.37350299 6.86901198 -22 5 C-22 5.66 -22 6.32 -22 7 C-24.31 7 -26.62 7 -29 7 C-28.34 7.94875 -27.68 8.8975 -27 9.875 C-25 13 -25 13 -25 15 C-24.34 15 -23.68 15 -23 15 C-22.34 16.98 -21.68 18.96 -21 21 C-25.87305969 16.70024145 -28.8200442 11.62775683 -32 6 C-29.80246938 3.80246938 -25.12063745 4.06273847 -22.0625 3.625 C-15.75279521 2.69022892 -9.74236619 1.6141348 -3.71484375 -0.546875 C-2 -1 -2 -1 0 0 Z " fill="#2E42A0" transform="translate(172,262)"/>
<path d="M0 0 C8.25 0 16.5 0 25 0 C25 0.33 25 0.66 25 1 C17.41 1.33 9.82 1.66 2 2 C2.07909306 9.15029823 2.07909306 9.15029823 2.18017578 16.30029297 C2.1851709 17.18861816 2.19016602 18.07694336 2.1953125 18.9921875 C2.20578613 19.90339355 2.21625977 20.81459961 2.22705078 21.75341797 C2 24 2 24 0 26 C0 17.42 0 8.84 0 0 Z " fill="#F2C626" transform="translate(359,369)"/>
<path d="M0 0 C0.66 0 1.32 0 2 0 C3.75873402 7.29106238 4.35001536 14.59590873 4.75 22.0625 C4.80663818 23.00311279 4.86327637 23.94372559 4.92163086 24.9128418 C4.96296143 25.79883057 5.00429199 26.68481934 5.046875 27.59765625 C5.08651367 28.39695557 5.12615234 29.19625488 5.16699219 30.01977539 C5 32 5 32 3 34 C1.6816785 31.363357 1.9759949 29.51495684 2.0625 26.5625 C2.15276975 17.63582475 1.04709013 8.85352099 0 0 Z " fill="#30459D" transform="translate(199,138)"/>
<path d="M0 0 C4.52765739 4.30736956 7.73816044 9.25819485 11.1875 14.4375 C11.82880859 15.37916016 12.47011719 16.32082031 13.13085938 17.29101562 C14.04641602 18.6609668 14.04641602 18.6609668 14.98046875 20.05859375 C15.53629639 20.88673584 16.09212402 21.71487793 16.66479492 22.56811523 C18.04565922 25.08316173 18.59854347 27.17406087 19 30 C15.51668565 26.98112756 14.20842856 24.43090471 13 20 C12.34 20 11.68 20 11 20 C11 19.01 11 18.02 11 17 C10.01 16.67 9.02 16.34 8 16 C7.29788106 14.34795544 6.63028587 12.68076231 6 11 C5.34 10.67 4.68 10.34 4 10 C4 9.01 4 8.02 4 7 C3.34 7 2.68 7 2 7 C1.34 4.69 0.68 2.38 0 0 Z " fill="#2F439B" transform="translate(213,314)"/>
<path d="M0 0 C3.72897591 1.25815041 5.20013887 3.3638573 7.25 6.625 C7.77078125 7.44226563 8.2915625 8.25953125 8.828125 9.1015625 C9.21484375 9.72804688 9.6015625 10.35453125 10 11 C9.67 11.66 9.34 12.32 9 13 C5 13 5 13 3.25 11.375 C1.69619603 8.42277246 1.77567159 6.29014997 2 3 C0.68 2.34 -0.64 1.68 -2 1 C-1.34 0.67 -0.68 0.34 0 0 Z " fill="#2C41A9" transform="translate(175,259)"/>
<path d="M0 0 C-0.33 3.96 -0.66 7.92 -1 12 C-1.66 12 -2.32 12 -3 12 C-3.33 9.03 -3.66 6.06 -4 3 C-5.32 3.99 -6.64 4.98 -8 6 C-8.66 5.67 -9.32 5.34 -10 5 C-9.34 4.01 -8.68 3.02 -8 2 C-7.34 2 -6.68 2 -6 2 C-6 1.34 -6 0.68 -6 0 C-2.25 -1.125 -2.25 -1.125 0 0 Z " fill="#B72F2B" transform="translate(114,188)"/>
<path d="M0 0 C0.66 0.66 1.32 1.32 2 2 C0.37965717 4.14949538 -1.24595794 6.2946141 -2.875 8.4375 C-3.33519531 9.04916016 -3.79539062 9.66082031 -4.26953125 10.29101562 C-7.7734375 14.88671875 -7.7734375 14.88671875 -10 16 C-9.67 14.02 -9.34 12.04 -9 10 C-8.01 10 -7.02 10 -6 10 C-6 8.68 -6 7.36 -6 6 C-4.68 5.67 -3.36 5.34 -2 5 C-2 4.01 -2 3.02 -2 2 C-1.34 2 -0.68 2 0 2 C0 1.34 0 0.68 0 0 Z " fill="#AF271E" transform="translate(303,289)"/>
<path d="M0 0 C15.89199946 -0.80352806 15.89199946 -0.80352806 22 4 C24.5 6.75 24.5 6.75 26 9 C23.80588847 7.98130536 22.02825521 7.02435794 20.1875 5.4375 C17.22474713 3.49054811 14.4849683 3.33509311 11 3 C11 2.67 11 2.34 11 2 C7.37 1.67 3.74 1.34 0 1 C0 0.67 0 0.34 0 0 Z " fill="#3345A1" transform="translate(446,328)"/>
<path d="M0 0 C1.93884889 0.28256092 3.87605961 0.5763793 5.8125 0.875 C6.89144531 1.03742188 7.97039062 1.19984375 9.08203125 1.3671875 C12 2 12 2 15 4 C13.4375 5.125 13.4375 5.125 11 6 C7.25 5.125 7.25 5.125 4 4 C4 3.34 4 2.68 4 2 C3.01 2.33 2.02 2.66 1 3 C0.67 2.01 0.34 1.02 0 0 Z " fill="#2C45A8" transform="translate(166,73)"/>
<path d="M0 0 C3.64301317 1.43090751 4.83723039 2.96987891 6.5625 6.4375 C8.10224185 9.5018387 9.58274896 11.59632902 12 14 C12.6875 16.6875 12.6875 16.6875 13 19 C9.34331035 15.67039956 6.85833756 11.96290031 4.25 7.8125 C3.83878906 7.17119141 3.42757812 6.52988281 3.00390625 5.86914062 C0 1.14372664 0 1.14372664 0 0 Z " fill="#33429C" transform="translate(185,335)"/>
<path d="M0 0 C2.9375 0.375 2.9375 0.375 6 1 C7.33332095 3.6666419 6.67102033 5.16680303 6 8 C6.66 8.33 7.32 8.66 8 9 C8 10.65 8 12.3 8 14 C5.79062655 11.79062655 4.80155486 9.80140222 3.4375 7 C3.00308594 6.113125 2.56867188 5.22625 2.12109375 4.3125 C1.75113281 3.549375 1.38117188 2.78625 1 2 C0.67 1.34 0.34 0.68 0 0 Z " fill="#2C46A4" transform="translate(191,124)"/>
<path d="M0 0 C4.23431576 3.60700972 6.4692099 8.14586161 9 13 C8.34 13.66 7.68 14.32 7 15 C6.4121875 13.329375 6.4121875 13.329375 5.8125 11.625 C4.57517033 8.68039334 4.26393503 8.14117455 1.3125 6.5625 C0.1678125 6.2840625 0.1678125 6.2840625 -1 6 C-0.67 4.02 -0.34 2.04 0 0 Z " fill="#2A41A6" transform="translate(195,287)"/>
<path d="M0 0 C2.31 0.33 4.62 0.66 7 1 C4.03 4.96 4.03 4.96 1 9 C-1.08954032 4.82091936 -1.16552619 4.19589427 0 0 Z " fill="#B9261F" transform="translate(355,217)"/>
<path d="M0 0 C0 0.66 0 1.32 0 2 C-0.99 2.495 -0.99 2.495 -2 3 C-1.67 3.99 -1.34 4.98 -1 6 C-2.98 6.66 -4.96 7.32 -7 8 C-7 7.34 -7 6.68 -7 6 C-7.99 5.34 -8.98 4.68 -10 4 C-8.71086513 3.32845067 -7.41859796 2.66291141 -6.125 2 C-5.40570313 1.62875 -4.68640625 1.2575 -3.9453125 0.875 C-2 0 -2 0 0 0 Z " fill="#2E43A9" transform="translate(176,206)"/>
<path d="M0 0 C0.66 0.33 1.32 0.66 2 1 C2 2.32 2 3.64 2 5 C2.66 5 3.32 5 4 5 C4.33 5.66 4.66 6.32 5 7 C5.99 7.66 6.98 8.32 8 9 C3.60405194 9 2.36556338 8.28351372 -1.25 6 C-2.14203125 5.443125 -3.0340625 4.88625 -3.953125 4.3125 C-4.62859375 3.879375 -5.3040625 3.44625 -6 3 C-5.38125 2.87625 -4.7625 2.7525 -4.125 2.625 C-1.80879168 2.12802644 -1.80879168 2.12802644 0 0 Z " fill="#2D47A5" transform="translate(177,106)"/>
<path d="M0 0 C0.66 0.99 1.32 1.98 2 3 C1.01 4.485 1.01 4.485 0 6 C-0.66 6 -1.32 6 -2 6 C-2.33 6.66 -2.66 7.32 -3 8 C-4.31328657 9.35308313 -5.64499081 10.68870078 -7 12 C-7.66 11.67 -8.32 11.34 -9 11 C-6.03 7.37 -3.06 3.74 0 0 Z " fill="#B42520" transform="translate(317,220)"/>
<path d="M0 0 C2.6875 -0.3125 2.6875 -0.3125 5 0 C1.95797381 4.25883667 -1.4839539 7.38603243 -6 10 C-6.66 10 -7.32 10 -8 10 C-8 9.34 -8 8.68 -8 8 C-7.236875 7.566875 -6.47375 7.13375 -5.6875 6.6875 C-2.82334415 5.18905421 -2.82334415 5.18905421 -1.5 2.3125 C-1.005 1.549375 -0.51 0.78625 0 0 Z " fill="#2D41A2" transform="translate(206,219)"/>
<path d="M0 0 C0 3.57575896 -1.08840607 5.05295935 -3 8 C-2.34 8 -1.68 8 -1 8 C-1 9.32 -1 10.64 -1 12 C-1.66 12 -2.32 12 -3 12 C-3 11.34 -3 10.68 -3 10 C-4.98 10.99 -6.96 11.98 -9 13 C-7.50923566 9.7173068 -5.61379679 7.06922559 -3.375 4.25 C-2.74335938 3.45078125 -2.11171875 2.6515625 -1.4609375 1.828125 C-0.97882813 1.22484375 -0.49671875 0.6215625 0 0 Z " fill="#AF2821" transform="translate(257,298)"/>
<path d="M0 0 C0.69759108 2.17028336 1.10954619 3.57642138 0.53125 5.8125 C-0.08718105 8.35898079 -0.09693682 10.63280192 -0.0625 13.25 C-0.04896484 14.58804688 -0.04896484 14.58804688 -0.03515625 15.953125 C-0.02355469 16.62859375 -0.01195312 17.3040625 0 18 C-0.99 17.67 -1.98 17.34 -3 17 C-3.3540919 10.48208608 -3.03901852 5.82478551 0 0 Z " fill="#7B4084" transform="translate(236,172)"/>
<path d="M0 0 C4.48052165 1.34348475 8.28288819 3.13141124 12.3125 5.5 C13.88451172 6.41265625 13.88451172 6.41265625 15.48828125 7.34375 C18 9 18 9 19 11 C14.77964845 9.5024559 11.04193318 7.37264666 7.16015625 5.17578125 C4.83689443 3.91122102 2.49285116 2.88456009 0 2 C0 1.34 0 0.68 0 0 Z " fill="#2E409A" transform="translate(192,81)"/>
<path d="M0 0 C2.32510245 2.84179188 4.57700599 5.72826599 6.75 8.6875 C7.17796875 9.26886719 7.6059375 9.85023438 8.046875 10.44921875 C9 12 9 12 9 14 C8.34 14 7.68 14 7 14 C7 13.34 7 12.68 7 12 C6.34 12 5.68 12 5 12 C4.01 10.02 3.02 8.04 2 6 C1.34 6 0.68 6 0 6 C-1 3 -1 3 0 0 Z " fill="#2C419B" transform="translate(204,300)"/>
<path d="M0 0 C0.33 0 0.66 0 1 0 C1 4.62 1 9.24 1 14 C-0.32 13.67 -1.64 13.34 -3 13 C-2.67 12.34 -2.34 11.68 -2 11 C-1.68954474 8.40856095 -1.49026088 5.81628268 -1.28125 3.21484375 C-1 1 -1 1 0 0 Z " fill="#C43536" transform="translate(112,120)"/>
<path d="M0 0 C0.99 0 1.98 0 3 0 C1.44499019 3.81684226 -1.03595495 6.19195732 -4 9 C-4.33 7.35 -4.66 5.7 -5 4 C-4.01 3.34 -3.02 2.68 -2 2 C-1.67 1.67 -1.34 1.34 -1 1 C-0.67 0.67 -0.34 0.34 0 0 Z " fill="#B62922" transform="translate(384,185)"/>
<path d="M0 0 C1 3 1 3 -0.25 6.125 C-2 9 -2 9 -5 10 C-5.66 9.34 -6.32 8.68 -7 8 C-6.34 7.67 -5.68 7.34 -5 7 C-3.98133771 5.34467377 -2.98189187 3.67739862 -2 2 C-1.34 1.34 -0.68 0.68 0 0 Z " fill="#3544AC" transform="translate(232,187)"/>
<path d="M0 0 C2.2477975 2.05233685 3.0022242 3.00667261 4 6 C4.068991 8.06145107 4.08467727 10.12501401 4.0625 12.1875 C4.05347656 13.27417969 4.04445313 14.36085938 4.03515625 15.48046875 C4.02355469 16.31191406 4.01195312 17.14335937 4 18 C3.67 18 3.34 18 3 18 C2.67 14.04 2.34 10.08 2 6 C1.34 6 0.68 6 0 6 C0 4.02 0 2.04 0 0 Z " fill="#32489F" transform="translate(472,337)"/>
<path d="M0 0 C3.03393954 3.46735947 4.9351577 7.52949826 6 12 C5.67 12.99 5.34 13.98 5 15 C4.01 12.03 3.02 9.06 2 6 C1.34 6 0.68 6 0 6 C0 4.02 0 2.04 0 0 Z " fill="#32419D" transform="translate(229,113)"/>
<path d="M0 0 C0.99 0.33 1.98 0.66 3 1 C3 1.99 3 2.98 3 4 C4.32 4.33 5.64 4.66 7 5 C7 6.98 7 8.96 7 11 C5.66104368 9.33784732 4.32869858 7.67036393 3 6 C2.4225 5.278125 1.845 4.55625 1.25 3.8125 C0 2 0 2 0 0 Z " fill="#2D42A0" transform="translate(178,324)"/>
<path d="M0 0 C-2.31 2.97 -4.62 5.94 -7 9 C-7.33 8.01 -7.66 7.02 -8 6 C-7.67 5.34 -7.34 4.68 -7 4 C-6.34 4 -5.68 4 -5 4 C-5.33 2.68 -5.66 1.36 -6 0 C-4 -1 -4 -1 0 0 Z " fill="#B02C1F" transform="translate(329,169)"/>
<path d="M0 0 C2.64 0 5.28 0 8 0 C4.35883227 3.33773709 0.71392758 3.97864902 -4 5 C-3.67 4.34 -3.34 3.68 -3 3 C-2.34 3 -1.68 3 -1 3 C-0.67 2.01 -0.34 1.02 0 0 Z " fill="#2E419C" transform="translate(180,234)"/>
<path d="M0 0 C3.48749314 2.78999451 6.50157221 5.25235831 9 9 C8.67 9.66 8.34 10.32 8 11 C3.65020147 8.15013199 1.63177255 4.89531765 0 0 Z " fill="#32429D" transform="translate(216,96)"/>
<path d="M0 0 C0.33 0.66 0.66 1.32 1 2 C-0.25483449 5.42227589 -2.3651481 7.54080489 -5 10 C-5.66 9.67 -6.32 9.34 -7 9 C-4.69 6.03 -2.38 3.06 0 0 Z " fill="#AD2920" transform="translate(287,259)"/>
<path d="M0 0 C3.79588866 0.54226981 5.47211993 2.20127563 8 5 C7.01 5.495 7.01 5.495 6 6 C6 5.34 6 4.68 6 4 C4.35 4.33 2.7 4.66 1 5 C0.67 3.35 0.34 1.7 0 0 Z " fill="#A22922" transform="translate(93,121)"/>
<path d="M0 0 C0.66 0.33 1.32 0.66 2 1 C0.625 3.5 0.625 3.5 -1 6 C-1.66 6 -2.32 6 -3 6 C-3 6.99 -3 7.98 -3 9 C-3.66 9 -4.32 9 -5 9 C-3.7508258 5.54074837 -2.32472205 2.85306797 0 0 Z " fill="#35479B" transform="translate(436,333)"/>
<path d="M0 0 C0.66 0 1.32 0 2 0 C1.52797514 4.24822374 -0.96655518 6.19989709 -4 9 C-3.67 7.02 -3.34 5.04 -3 3 C-2.01 3 -1.02 3 0 3 C0 2.01 0 1.02 0 0 Z " fill="#AE291F" transform="translate(309,281)"/>
<path d="M0 0 C3.34249629 0.59687434 5.46436342 1.73603877 8 4 C8 4.66 8 5.32 8 6 C5.0280615 4.87548273 2.66559313 3.77706209 0 2 C0 1.34 0 0.68 0 0 Z " fill="#A72B27" transform="translate(148,134)"/>
<path d="M0 0 C0.61875 0.78375 1.2375 1.5675 1.875 2.375 C3.89858661 4.96837647 3.89858661 4.96837647 6 7 C5.625 9.125 5.625 9.125 5 11 C4.15841464 9.73461631 3.32700252 8.46246221 2.5 7.1875 C1.80390625 6.12595703 1.80390625 6.12595703 1.09375 5.04296875 C0 3 0 3 0 0 Z " fill="#42418F" transform="translate(226,333)"/>
<path d="M0 0 C0.86625 0.3403125 0.86625 0.3403125 1.75 0.6875 C-2.875 4.6875 -2.875 4.6875 -6.25 4.6875 C-6.25 4.0275 -6.25 3.3675 -6.25 2.6875 C-3.02697842 -0.42041367 -3.02697842 -0.42041367 0 0 Z " fill="#A92826" transform="translate(117.25,197.3125)"/>
<path d="M0 0 C0.66 0.33 1.32 0.66 2 1 C0.35 2.98 -1.3 4.96 -3 7 C-3.66 5.68 -4.32 4.36 -5 3 C-2 1 -2 1 0 0 Z " fill="#AD2422" transform="translate(335,250)"/>
<path d="M0 0 C0 3 0 3 -2 5.1875 C-2.66 5.785625 -3.32 6.38375 -4 7 C-4.66 5.68 -5.32 4.36 -6 3 C-4.02 2.01 -2.04 1.02 0 0 Z " fill="#AE261D" transform="translate(368,208)"/>
<path d="M0 0 C2.64 0 5.28 0 8 0 C6.02 2.97 6.02 2.97 4 6 C3.896875 5.38125 3.79375 4.7625 3.6875 4.125 C3.12474627 1.63473516 3.12474627 1.63473516 0 0 Z " fill="#A72921" transform="translate(326,162)"/>
<path d="M0 0 C1.32 0 2.64 0 4 0 C4.66 2.64 5.32 5.28 6 8 C3.33264727 5.51047079 1.44253657 3.36591866 0 0 Z " fill="#313F9D" transform="translate(160,298)"/>
<path d="M0 0 C0 2.33333333 0 4.66666667 0 7 C-1.65 7.33 -3.3 7.66 -5 8 C-3.62845496 5.04590299 -2.01136276 2.55991624 0 0 Z " fill="#AB2921" transform="translate(356,169)"/>
<path d="M0 0 C3.465 1.98 3.465 1.98 7 4 C6.01 4.66 5.02 5.32 4 6 C2.35 4.35 0.7 2.7 -1 1 C-0.67 0.67 -0.34 0.34 0 0 Z " fill="#9E3934" transform="translate(173,151)"/>
</svg>
